<svg xmlns="http://www.w3.org/2000/svg" xmlns:xlink="http://www.w3.org/1999/xlink"
     viewBox="-0.711 -1.001 643.414 177.998" width="639.41" height="174">
    <defs>
        <path d="M627.7 110.35v25.87c.01 7.83.64 15.66 1.89 23.4-.99-3.28-5.91-19.7-14.77-49.27h-16.99v62.66h11.97v-23.32c0-6.98-.38-11.03-.42-12.25-.3-3.53-.7-7.46-1.2-11.81-.01-.6-.07-1.2-.18-1.8.98 3.28 5.84 19.67 14.59 49.18h17.11l-.02-62.66H627.7zm-40.53 62.66v-62.66h-13.7l-.02 62.66h13.72zm-54.75 0h32.86l1.48-11.49h-20.67v-51.17h-13.67v62.66zm-32.8-52.44c3.19 0 5.54.71 7.02 2.13a8.832 8.832 0 012.22 6.64c0 4.98-1.84 6.56-2.05 7.29-1.7 1.66-4.09 2.5-6.51 2.3h-4.19v-18.36h3.51zm26.7 52.42c-8.06-16.05-12.54-24.98-13.43-26.76 10.01-4.89 9-15.21 10.01-16.9 0-6.34-1.91-11.07-5.73-14.24-3.83-3.18-9.62-4.75-17.38-4.75h-17.41v62.65h13.7v-24.08h4.43l10.83 24.08h14.98zm-85.82 0h33.39v-10.48h-19.68v-16.27h16.11v-10.11h-16.11v-15.46h18.41l1.47-10.32-33.59-.01v62.65zm-31.68-10.48h-3.94v-17.29h4.62c9.07 0 8.16 7.97 9.07 8.86 0 4.71-2.24 5.94-2.48 6.61a11.892 11.892 0 01-7.27 1.89m5.64-40.18c1.48 1.45 2.23 3.44 2.05 5.47 0 5.12-2.61 7.68-7.87 7.68h-3.76v-14.98c1.64.03 2.67.05 3.08.06 2.32-.19 4.63.44 6.5 1.77zm5.55 17.49c2.93-.78 5.53-2.4 7.46-4.65 2.04-2.51 3.08-5.63 2.95-8.82 0-8.15-5.54-10.86-6.16-12.07-4.1-2.62-9.94-3.93-17.54-3.94h-15.5v62.65h17.52c23.88 0 21.49-16.43 23.88-18.26 0-6.77-3.12-9.19-3.47-10.22-2.5-2.39-5.67-4.02-9.12-4.69m-58.37-29.76c-3.98-.01-7.85 1.21-11.03 3.48-3.7 2.73-6.52 6.41-8.14 10.62a44.146 44.146 0 00-3.08 17.62c0 16.11 5.23 21.68 5.81 24.09 3.58 5.23 9.73 8.27 16.23 8.04 5.66-.03 11.16-1.81 15.68-5.06v-29.27h-15.65l.61 4.42h10.18v22.24c-3.2 2.09-7 3.2-10.88 3.18-16.76 0-15.08-24.92-16.76-27.68-.17-5.35.64-10.69 2.4-15.77 1.14-3.45 3.31-6.5 6.24-8.77 2.42-1.73 5.36-2.67 8.39-2.67 2.11-.04 4.21.35 6.16 1.14 2.02.92 3.88 2.15 5.49 3.65.29-.31 2.66-2.84 2.95-3.16a26.193 26.193 0 00-6.76-4.66c-2.46-1.01-5.12-1.5-7.8-1.42m-39.64 41.48h-19.61l9.85-36.16 9.76 36.16zm-6.59-40.56h-6.17l-17.55 61.94h4.88l4.63-17h21.98l4.64 17 5.08.04-17.49-61.98zm-58.88 4.63h15.56v57.31h4.89V115.7h15.4l.52-4.63h-36.37v4.63zm-26.89 25.13h-7.69v-25.36h6.94c7.96 0 10.23 2.75 11.37 3.06 3.41 3.06 3.08 8.47 3.42 9.41 0 6.59-3.15 8.79-3.49 9.77-2.34 2.11-5.85 3.16-10.55 3.15m7.55 3.26c3.48-.89 6.54-2.89 8.68-5.66 2.13-3.09 3.19-6.75 3.04-10.45 0-11.2-6.62-16.81-19.85-16.82h-12.07v61.93h4.96v-27.9h9.07l1.37-.1 13.61 27.94 5.66-.01c-9.01-18-13.83-27.64-14.47-28.93zm-59.8 28.89h27.57v-4.43h-22.6v-25.51h18.65v-4.31h-18.65v-23.29h21.49l.59-4.44-27.05.04v61.94zm-29.02-62.93c-2.84-.04-5.65.65-8.13 1.99a14.437 14.437 0 00-5.6 5.47 15.265 15.265 0 00-2.01 7.74c-.17 3.64 1.09 7.22 3.52 10.03 3.48 3.86 10.39 6.14 11.55 6.82 2.6.93 5.08 2.16 7.38 3.66 1.63 1.08 2.94 2.54 3.81 4.25.84 1.95 1.24 4.05 1.16 6.15.19 3.53-1.07 6.99-3.51 9.64-2.38 2.4-5.72 3.7-9.17 3.57-2.63.06-5.25-.48-7.62-1.59a25.196 25.196 0 01-6.5-4.74c-.28.3-2.54 2.76-2.82 3.07 4.17 4.93 10.42 7.78 17.03 7.77 3.25.06 6.45-.74 9.26-2.31a15.74 15.74 0 006.2-6.41 19.19 19.19 0 002.18-9.17c0-7.42-3.31-10.2-3.67-11.34-3.25-3.12-7.2-5.47-11.56-6.86-4.64-1.69-7.83-3.46-9.6-5.29a10.291 10.291 0 01-2.66-7.47c-.13-2.81.93-5.55 2.95-7.59 2.08-1.94 4.91-2.97 7.8-2.84 2.23-.03 4.44.42 6.47 1.32 2.21 1.08 4.2 2.52 5.9 4.25.28-.31 2.55-2.84 2.84-3.16-1.97-2.09-4.3-3.84-6.9-5.16a19.177 19.177 0 00-8.35-1.71m-38.41-15.44c-.91-.03-1.79.34-2.4.99-.63.67-.96 1.54-.93 2.44-.05.92.26 1.83.88 2.54.62.64 1.49 1.01 2.41.99.88.01 1.73-.35 2.3-.99.64-.7.98-1.61.95-2.54.02-.9-.32-1.77-.95-2.44a3.004 3.004 0 00-2.3-.99m-14.76 0a3.02 3.02 0 00-2.3.99c-.63.67-.97 1.54-.94 2.44-.04.93.3 1.84.94 2.54 1.17 1.23 3.16 1.33 4.44.21.08-.07.16-.14.23-.21.61-.72.93-1.62.9-2.54.02-.89-.3-1.76-.9-2.44a3.003 3.003 0 00-2.37-.99m16.78 56.86H92.34l9.85-36.12 9.76 36.12zm-6.59-40.52h-6.17l-17.55 61.94h4.88l4.62-17h21.99l4.64 17 5.08.04-17.49-61.98zm-58.27 61.94h26.28l.69-4.7H52.05v-57.24h-4.96v61.94zm-32.55-4.43H5.27v-26.04h10c3.67-.22 7.28.94 10.07 3.25 2.36 2.17 3.55 5.51 3.55 10.03 0 8.51-4.76 12.76-14.3 12.76m8.34-50.36c2.36 1.84 3.56 4.75 3.56 8.73.2 3.07-.92 6.09-3.09 8.36-2.31 2.1-5.41 3.2-8.59 3.03H5.27v-22.87h7.19c4.61 0 8.11.91 10.47 2.75zm-1.83 22.02c3.04-.6 5.76-2.22 7.66-4.57 1.96-2.65 2.93-5.85 2.78-9.09 0-7.51-4.59-10.33-5.1-11.48-3.39-2.65-8.23-3.99-14.5-4.03H.29v61.94h14.25c9.26 0 12.96-3.91 14.4-4.35 5.14-4.35 4.62-11.55 5.14-12.84 0-4.93-1.18-8.64-3.52-11.11-2.47-2.54-5.81-4.14-9.42-4.51"
              id="a"/>
        <path d="M627.7 110.35v25.87c.01 7.83.64 15.66 1.89 23.4-.99-3.28-5.91-19.7-14.77-49.27h-16.99v62.66h11.97v-23.32c0-6.98-.38-11.03-.42-12.25-.3-3.53-.7-7.46-1.2-11.81-.01-.6-.07-1.2-.18-1.8.98 3.28 5.84 19.67 14.59 49.18h17.11l-.02-62.66H627.7zm-40.53 62.66v-62.66h-13.7l-.02 62.66h13.72zm-54.75 0h32.86l1.48-11.49h-20.67v-51.17h-13.67v62.66zm-32.8-52.44c3.19 0 5.54.71 7.02 2.13a8.832 8.832 0 012.22 6.64c0 4.98-1.84 6.56-2.05 7.29-1.7 1.66-4.09 2.5-6.51 2.3h-4.19v-18.36h3.51zm26.7 52.42c-8.06-16.05-12.54-24.98-13.43-26.76 10.01-4.89 9-15.21 10.01-16.9 0-6.34-1.91-11.07-5.73-14.24-3.83-3.18-9.62-4.75-17.38-4.75h-17.41v62.65h13.7v-24.08h4.43l10.83 24.08h14.98zm-85.82 0h33.39v-10.48h-19.68v-16.27h16.11v-10.11h-16.11v-15.46h18.41l1.47-10.32-33.59-.01v62.65zm-31.68-10.48h-3.94v-17.29h4.62c9.07 0 8.16 7.97 9.07 8.86 0 4.71-2.24 5.94-2.48 6.61a11.892 11.892 0 01-7.27 1.89m5.64-40.18c1.48 1.45 2.23 3.44 2.05 5.47 0 5.12-2.61 7.68-7.87 7.68h-3.76v-14.98c1.64.03 2.67.05 3.08.06 2.32-.19 4.63.44 6.5 1.77zm5.55 17.49c2.93-.78 5.53-2.4 7.46-4.65 2.04-2.51 3.08-5.63 2.95-8.82 0-8.15-5.54-10.86-6.16-12.07-4.1-2.62-9.94-3.93-17.54-3.94h-15.5v62.65h17.52c23.88 0 21.49-16.43 23.88-18.26 0-6.77-3.12-9.19-3.47-10.22-2.5-2.39-5.67-4.02-9.12-4.69m-58.37-29.76c-3.98-.01-7.85 1.21-11.03 3.48-3.7 2.73-6.52 6.41-8.14 10.62a44.146 44.146 0 00-3.08 17.62c0 16.11 5.23 21.68 5.81 24.09 3.58 5.23 9.73 8.27 16.23 8.04 5.66-.03 11.16-1.81 15.68-5.06v-29.27h-15.65l.61 4.42h10.18v22.24c-3.2 2.09-7 3.2-10.88 3.18-16.76 0-15.08-24.92-16.76-27.68-.17-5.35.64-10.69 2.4-15.77 1.14-3.45 3.31-6.5 6.24-8.77 2.42-1.73 5.36-2.67 8.39-2.67 2.11-.04 4.21.35 6.16 1.14 2.02.92 3.88 2.15 5.49 3.65.29-.31 2.66-2.84 2.95-3.16a26.193 26.193 0 00-6.76-4.66c-2.46-1.01-5.12-1.5-7.8-1.42m-39.64 41.48h-19.61l9.85-36.16 9.76 36.16zm-6.59-40.56h-6.17l-17.55 61.94h4.88l4.63-17h21.98l4.64 17 5.08.04-17.49-61.98zm-58.88 4.63h15.56v57.31h4.89V115.7h15.4l.52-4.63h-36.37v4.63zm-26.89 25.13h-7.69v-25.36h6.94c7.96 0 10.23 2.75 11.37 3.06 3.41 3.06 3.08 8.47 3.42 9.41 0 6.59-3.15 8.79-3.49 9.77-2.34 2.11-5.85 3.16-10.55 3.15m7.55 3.26c3.48-.89 6.54-2.89 8.68-5.66 2.13-3.09 3.19-6.75 3.04-10.45 0-11.2-6.62-16.81-19.85-16.82h-12.07v61.93h4.96v-27.9h9.07l1.37-.1 13.61 27.94 5.66-.01c-9.01-18-13.83-27.64-14.47-28.93zm-59.8 28.89h27.57v-4.43h-22.6v-25.51h18.65v-4.31h-18.65v-23.29h21.49l.59-4.44-27.05.04v61.94zm-29.02-62.93c-2.84-.04-5.65.65-8.13 1.99a14.437 14.437 0 00-5.6 5.47 15.265 15.265 0 00-2.01 7.74c-.17 3.64 1.09 7.22 3.52 10.03 3.48 3.86 10.39 6.14 11.55 6.82 2.6.93 5.08 2.16 7.38 3.66 1.63 1.08 2.94 2.54 3.81 4.25.84 1.95 1.24 4.05 1.16 6.15.19 3.53-1.07 6.99-3.51 9.64-2.38 2.4-5.72 3.7-9.17 3.57-2.63.06-5.25-.48-7.62-1.59a25.196 25.196 0 01-6.5-4.74c-.28.3-2.54 2.76-2.82 3.07 4.17 4.93 10.42 7.78 17.03 7.77 3.25.06 6.45-.74 9.26-2.31a15.74 15.74 0 006.2-6.41 19.19 19.19 0 002.18-9.17c0-7.42-3.31-10.2-3.67-11.34-3.25-3.12-7.2-5.47-11.56-6.86-4.64-1.69-7.83-3.46-9.6-5.29a10.291 10.291 0 01-2.66-7.47c-.13-2.81.93-5.55 2.95-7.59 2.08-1.94 4.91-2.97 7.8-2.84 2.23-.03 4.44.42 6.47 1.32 2.21 1.08 4.2 2.52 5.9 4.25.28-.31 2.55-2.84 2.84-3.16-1.97-2.09-4.3-3.84-6.9-5.16a19.177 19.177 0 00-8.35-1.71m-38.41-15.44c-.91-.03-1.79.34-2.4.99-.63.67-.96 1.54-.93 2.44-.05.92.26 1.83.88 2.54.62.64 1.49 1.01 2.41.99.88.01 1.73-.35 2.3-.99.64-.7.98-1.61.95-2.54.02-.9-.32-1.77-.95-2.44a3.004 3.004 0 00-2.3-.99m-14.76 0a3.02 3.02 0 00-2.3.99c-.63.67-.97 1.54-.94 2.44-.04.93.3 1.84.94 2.54 1.17 1.23 3.16 1.33 4.44.21.08-.07.16-.14.23-.21.61-.72.93-1.62.9-2.54.02-.89-.3-1.76-.9-2.44a3.003 3.003 0 00-2.37-.99m16.78 56.86H92.34l9.85-36.12 9.76 36.12zm-6.59-40.52h-6.17l-17.55 61.94h4.88l4.62-17h21.99l4.64 17 5.08.04-17.49-61.98zm-58.27 61.94h26.28l.69-4.7H52.05v-57.24h-4.96v61.94zm-32.55-4.43H5.27v-26.04h10c3.67-.22 7.28.94 10.07 3.25 2.36 2.17 3.55 5.51 3.55 10.03 0 8.51-4.76 12.76-14.3 12.76m8.34-50.36c2.36 1.84 3.56 4.75 3.56 8.73.2 3.07-.92 6.09-3.09 8.36-2.31 2.1-5.41 3.2-8.59 3.03H5.27v-22.87h7.19c4.61 0 8.11.91 10.47 2.75zm-1.83 22.02c3.04-.6 5.76-2.22 7.66-4.57 1.96-2.65 2.93-5.85 2.78-9.09 0-7.51-4.59-10.33-5.1-11.48-3.39-2.65-8.23-3.99-14.5-4.03H.29v61.94h14.25c9.26 0 12.96-3.91 14.4-4.35 5.14-4.35 4.62-11.55 5.14-12.84 0-4.93-1.18-8.64-3.52-11.11-2.47-2.54-5.81-4.14-9.42-4.51"
              id="b"/>
        <path d="M618.68 45.78h-7.29V20.53h6.62c7.58 0 9.77 2.76 10.86 3.06 2.17 2.03 3.26 5.15 3.26 9.33 0 4.19-1.12 7.61-3.35 9.71-2.23 2.1-5.58 3.14-10.04 3.14m7.18 3.22c3.34-.89 6.26-2.9 8.27-5.69 2.04-3.06 3.07-6.7 2.92-10.38 0-11.13-6.31-16.69-18.94-16.68h-11.52v61.5h4.74v-27.7h8.66l1.3-.09 12.98 27.7 5.37.07c-8.57-17.87-13.17-27.45-13.78-28.73zm-55.44 28.75h26.24v-4.37h-21.5V48.01h17.8v-4.29h-17.8V20.63h20.49l.57-4.36-25.8-.01v61.48zm-14.04-61.48h-4.68v26.93h-23.75V16.26h-4.74v61.48h4.74V47.56h23.75v30.18h4.68V16.26zm-55.9-1c-3.78-.02-7.46 1.2-10.45 3.49a23.252 23.252 0 00-7.29 10.64 49.81 49.81 0 00-2.68 17.5c-.16 5.95.72 11.89 2.6 17.55a23.02 23.02 0 007.29 10.69c3.04 2.34 6.78 3.58 10.62 3.53 5.24.01 10.22-2.27 13.62-6.27-.26-.33-2.35-2.99-2.61-3.33a24.394 24.394 0 01-5.05 3.78c-1.8.92-3.81 1.37-5.83 1.31-7.01 0-10.21-6.06-11.34-6.73-4.33-6.74-3.94-18.44-4.38-20.47 0-14.19 3.94-18.63 4.38-20.7 2.35-4.03 6.67-6.51 11.34-6.51 1.84-.04 3.67.33 5.35 1.08 1.8.89 3.46 2.04 4.93 3.41l2.52-3.32a21.808 21.808 0 00-5.91-4.27c-2.25-.97-4.69-1.44-7.14-1.38m-44.71 0c-2.72-.04-5.4.64-7.76 1.96a14.166 14.166 0 00-5.34 5.44c-1.29 2.35-1.95 5-1.91 7.68a14.66 14.66 0 003.34 10.02c3.33 3.8 9.91 6.1 11.01 6.78 2.51.9 4.89 2.12 7.1 3.62a10.91 10.91 0 013.64 4.27c.79 1.93 1.17 4.01 1.1 6.1.18 3.51-1.02 6.94-3.34 9.57a11.52 11.52 0 01-8.75 3.54c-2.52.06-5.02-.48-7.29-1.57a24.74 24.74 0 01-6.2-4.71c-.27.3-2.41 2.74-2.68 3.04a20.83 20.83 0 0016.23 7.72c3.09.06 6.15-.72 8.82-2.28 2.56-1.5 4.64-3.71 5.98-6.35 1.41-2.83 2.12-5.96 2.08-9.12 0-4.89-1.18-8.67-3.51-11.31-3.09-3.1-6.86-5.44-11.02-6.81-6.64-2.51-8.23-4.72-9.14-5.25a10.516 10.516 0 01-2.53-7.42c-.11-2.8.94-5.53 2.91-7.53 1.96-1.96 4.66-3.02 7.43-2.92 2.12-.03 4.22.41 6.15 1.3 2.09 1.06 3.98 2.48 5.6 4.18.27-.31 2.43-2.83 2.7-3.15-1.88-2.08-4.1-3.81-6.58-5.11a17.509 17.509 0 00-7.96-1.7m-26.63 62.49V16.26h-4.74v61.48h4.74zm-35.08-31.96h-7.29V20.53h6.6c5.06 0 8.75 1.02 10.86 3.06 2.12 2.04 3.27 5.15 3.27 9.33 0 4.19-1.13 7.61-3.36 9.71-2.23 2.1-5.56 3.14-10.02 3.14m7.17 3.22c3.33-.89 6.26-2.9 8.29-5.69 2.04-3.07 3.06-6.7 2.92-10.38 0-11.13-6.32-16.69-18.95-16.68h-11.5v61.5h4.73v-27.7h8.65l1.31-.09 12.97 27.7 5.38.07c-8.59-17.87-13.19-27.45-13.8-28.73zm-55.42 28.75h26.23v-4.37h-21.55V48.01h17.77v-4.29h-17.77V20.63h20.47l.57-4.36-25.72-.01v61.48zm-25.39-55.23c2.59 1.26 4.72 3.79 6.41 7.58 1.69 3.79 2.52 9.28 2.52 16.39 0 15.27-4.41 18.99-4.9 21.1-3.07 3.8-7.75 5.96-12.64 5.83h-6.5V20.63c3.25 0 5.28-.01 6.09-.01 3.11-.07 6.2.58 9.02 1.89zm-9.66-6.25h-10.2v61.48h11.02c6.13.12 12.02-2.4 16.18-6.91 6.58-6.91 5.92-21.91 6.58-24.34 0-17.43-5.84-21.41-6.49-23.79-4.34-4.36-10.03-6.5-17.09-6.44M277.64 0c-.87-.03-1.71.33-2.28.98-.6.67-.92 1.54-.89 2.43-.05.94.27 1.85.89 2.55a2.92 2.92 0 002.28 1c.85 0 1.65-.36 2.21-1 .6-.7.91-1.62.86-2.55.02-.89-.31-1.77-.91-2.43-.56-.63-1.36-.99-2.2-.98m-14.04 0c-.84-.01-1.64.35-2.2.98-.6.66-.91 1.54-.9 2.43-.03.95.3 1.86.95 2.55a2.905 2.905 0 004.1.34c.13-.1.24-.21.34-.34.59-.7.9-1.59.86-2.5.02-.89-.28-1.76-.86-2.44a2.794 2.794 0 00-2.24-.97m18.68 16.25v43.58c0 4.49-.96 8-2.91 10.51-1.95 2.51-4.93 3.78-9.01 3.78s-7.03-1.24-8.98-3.73c-1.94-2.5-2.91-6.01-2.91-10.56V16.26h-4.73v44.06c-.22 4.79 1.29 9.51 4.24 13.29 2.83 3.41 6.96 5.11 12.41 5.11s9.5-1.7 12.36-5.11c2.98-3.77 4.5-8.49 4.29-13.29 0-5.87-.01-20.54-.02-44.02h-4.74zm-57.45 29.48h-7.29V20.53h6.61c7.59 0 9.77 2.76 10.85 3.06 2.18 2.03 3.27 5.15 3.27 9.33 0 4.19-1.12 7.61-3.35 9.71-2.23 2.1-5.58 3.14-10.04 3.14m7.18 3.22c3.33-.89 6.25-2.9 8.28-5.69 2.04-3.06 3.06-6.7 2.92-10.38 0-11.13-6.32-16.69-18.94-16.68h-11.52v61.5h4.74v-27.7h8.66l1.29-.09 12.98 27.7 5.38.07c-8.58-17.87-13.17-27.45-13.79-28.73zm-48.65 24.36h-8.91V47.48h9.56c3.5-.22 6.95.94 9.59 3.23 3.4 3.24 3.05 8.98 3.39 9.97 0 8.45-4.55 12.67-13.63 12.66m7.9-50.07c2.26 1.82 3.38 4.73 3.38 8.68.19 3.04-.86 6.03-2.92 8.29-2.2 2.1-5.17 3.19-8.2 3.02h-9.07V20.53h6.81c6.6 0 9 2.47 10 2.74zm-1.77 21.87c2.89-.6 5.48-2.21 7.29-4.54a14.43 14.43 0 002.64-9.02c0-7.45-4.37-10.26-4.85-11.4-3.25-2.63-7.86-3.94-13.84-3.94H169.7v61.5h13.54c8.75 0 12.35-3.94 13.72-4.37 4.96-4.38 4.4-11.47 4.89-12.75 0-4.91-1.11-8.58-3.36-11.05-2.35-2.51-5.53-4.1-8.97-4.48m-69.98-15.65l5.56 8.98 10.43-7.82v47.14h12.33v-60.6h-11.27l-17.05 12.3zM98.05 15.8c-7.18 0-13.01 3.46-17.49 10.4 4.37 3.78 6.8 5.88 7.29 6.3 1.2-1.76 2.68-3.33 4.37-4.64 1.3-.95 2.88-1.46 4.49-1.45 1.7-.09 3.34.62 4.45 1.92a8.525 8.525 0 011.58 5.53c0 2.73-.56 5.43-1.63 7.94a51.59 51.59 0 01-5.83 9.7c-2.82 3.89-7.1 9.32-12.86 16.3v9.87h32.92c.79-6.42 1.23-9.98 1.32-10.69H96.17c7.92-8.96 10.83-13.25 12.03-14.72 2.38-3.14 4.34-6.56 5.83-10.2a26.83 26.83 0 001.63-9.3c.04-2.99-.66-5.95-2.04-8.61a15.243 15.243 0 00-6-6.15c-2.9-1.6-6.18-2.38-9.5-2.28M59.43 25.91c1.46-.01 2.82.71 3.64 1.91 1.14 2 1.81 4.23 1.96 6.52.5 4.35.72 8.73.65 13.11.07 4.42-.13 8.85-.61 13.25-.13 2.28-.8 4.5-1.97 6.47a4.36 4.36 0 01-3.74 1.85c-1.48.05-2.87-.65-3.72-1.85a15.234 15.234 0 01-2-6.5c-.5-4.39-.72-8.8-.65-13.21-.08-4.37.14-8.75.65-13.11.18-2.29.86-4.52 2-6.52a4.387 4.387 0 013.72-1.88m0-10.19a15.768 15.768 0 00-14.29 7.98c-4.81 8.05-4.33 21.37-4.81 23.74 0 15.7 4.39 21.38 4.88 23.76 2.89 5.14 8.4 8.23 14.29 8.02 5.89.2 11.4-2.89 14.29-8.02 4.88-8.05 4.39-21.39 4.88-23.76 0-15.71-4.43-21.25-4.93-23.61a15.775 15.775 0 00-14.24-8.07m-41.65 0C10.6 15.8 4.77 19.26.29 26.2c4.38 3.78 6.81 5.88 7.29 6.3 1.17-1.77 2.61-3.35 4.26-4.68a7.57 7.57 0 014.48-1.46c1.7-.09 3.35.63 4.45 1.93a8.497 8.497 0 011.58 5.52c0 2.73-.56 5.44-1.63 7.95a50.552 50.552 0 01-5.83 9.7c-2.79 3.88-7.07 9.32-12.85 16.29v9.87h32.97c.78-6.41 1.22-9.97 1.31-10.68h-20.5c7.92-8.97 10.84-13.25 12.04-14.73 2.36-3.13 4.3-6.55 5.76-10.19 1.1-2.98 1.65-6.13 1.64-9.3.03-3-.67-5.96-2.05-8.62a15.156 15.156 0 00-5.99-6.15c-2.91-1.59-6.2-2.37-9.52-2.28"
              id="c"/>
        <path d="M618.68 45.78h-7.29V20.53h6.62c7.58 0 9.77 2.76 10.86 3.06 2.17 2.03 3.26 5.15 3.26 9.33 0 4.19-1.12 7.61-3.35 9.71-2.23 2.1-5.58 3.14-10.04 3.14m7.18 3.22c3.34-.89 6.26-2.9 8.27-5.69 2.04-3.06 3.07-6.7 2.92-10.38 0-11.13-6.31-16.69-18.94-16.68h-11.52v61.5h4.74v-27.7h8.66l1.3-.09 12.98 27.7 5.37.07c-8.57-17.87-13.17-27.45-13.78-28.73zm-55.44 28.75h26.24v-4.37h-21.5V48.01h17.8v-4.29h-17.8V20.63h20.49l.57-4.36-25.8-.01v61.48zm-14.04-61.48h-4.68v26.93h-23.75V16.26h-4.74v61.48h4.74V47.56h23.75v30.18h4.68V16.26zm-55.9-1c-3.78-.02-7.46 1.2-10.45 3.49a23.252 23.252 0 00-7.29 10.64 49.81 49.81 0 00-2.68 17.5c-.16 5.95.72 11.89 2.6 17.55a23.02 23.02 0 007.29 10.69c3.04 2.34 6.78 3.58 10.62 3.53 5.24.01 10.22-2.27 13.62-6.27-.26-.33-2.35-2.99-2.61-3.33a24.394 24.394 0 01-5.05 3.78c-1.8.92-3.81 1.37-5.83 1.31-7.01 0-10.21-6.06-11.34-6.73-4.33-6.74-3.94-18.44-4.38-20.47 0-14.19 3.94-18.63 4.38-20.7 2.35-4.03 6.67-6.51 11.34-6.51 1.84-.04 3.67.33 5.35 1.08 1.8.89 3.46 2.04 4.93 3.41l2.52-3.32a21.808 21.808 0 00-5.91-4.27c-2.25-.97-4.69-1.44-7.14-1.38m-44.71 0c-2.72-.04-5.4.64-7.76 1.96a14.166 14.166 0 00-5.34 5.44c-1.29 2.35-1.95 5-1.91 7.68a14.66 14.66 0 003.34 10.02c3.33 3.8 9.91 6.1 11.01 6.78 2.51.9 4.89 2.12 7.1 3.62a10.91 10.91 0 013.64 4.27c.79 1.93 1.17 4.01 1.1 6.1.18 3.51-1.02 6.94-3.34 9.57a11.52 11.52 0 01-8.75 3.54c-2.52.06-5.02-.48-7.29-1.57a24.74 24.74 0 01-6.2-4.71c-.27.3-2.41 2.74-2.68 3.04a20.83 20.83 0 0016.23 7.72c3.09.06 6.15-.72 8.82-2.28 2.56-1.5 4.64-3.71 5.98-6.35 1.41-2.83 2.12-5.96 2.08-9.12 0-4.89-1.18-8.67-3.51-11.31-3.09-3.1-6.86-5.44-11.02-6.81-6.64-2.51-8.23-4.72-9.14-5.25a10.516 10.516 0 01-2.53-7.42c-.11-2.8.94-5.53 2.91-7.53 1.96-1.96 4.66-3.02 7.43-2.92 2.12-.03 4.22.41 6.15 1.3 2.09 1.06 3.98 2.48 5.6 4.18.27-.31 2.43-2.83 2.7-3.15-1.88-2.08-4.1-3.81-6.58-5.11a17.509 17.509 0 00-7.96-1.7m-26.63 62.49V16.26h-4.74v61.48h4.74zm-35.08-31.96h-7.29V20.53h6.6c5.06 0 8.75 1.02 10.86 3.06 2.12 2.04 3.27 5.15 3.27 9.33 0 4.19-1.13 7.61-3.36 9.71-2.23 2.1-5.56 3.14-10.02 3.14m7.17 3.22c3.33-.89 6.26-2.9 8.29-5.69 2.04-3.07 3.06-6.7 2.92-10.38 0-11.13-6.32-16.69-18.95-16.68h-11.5v61.5h4.73v-27.7h8.65l1.31-.09 12.97 27.7 5.38.07c-8.59-17.87-13.19-27.45-13.8-28.73zm-55.42 28.75h26.23v-4.37h-21.55V48.01h17.77v-4.29h-17.77V20.63h20.47l.57-4.36-25.72-.01v61.48zm-25.39-55.23c2.59 1.26 4.72 3.79 6.41 7.58 1.69 3.79 2.52 9.28 2.52 16.39 0 15.27-4.41 18.99-4.9 21.1-3.07 3.8-7.75 5.96-12.64 5.83h-6.5V20.63c3.25 0 5.28-.01 6.09-.01 3.11-.07 6.2.58 9.02 1.89zm-9.66-6.25h-10.2v61.48h11.02c6.13.12 12.02-2.4 16.18-6.91 6.58-6.91 5.92-21.91 6.58-24.34 0-17.43-5.84-21.41-6.49-23.79-4.34-4.36-10.03-6.5-17.09-6.44M277.64 0c-.87-.03-1.71.33-2.28.98-.6.67-.92 1.54-.89 2.43-.05.94.27 1.85.89 2.55a2.92 2.92 0 002.28 1c.85 0 1.65-.36 2.21-1 .6-.7.91-1.62.86-2.55.02-.89-.31-1.77-.91-2.43-.56-.63-1.36-.99-2.2-.98m-14.04 0c-.84-.01-1.64.35-2.2.98-.6.66-.91 1.54-.9 2.43-.03.95.3 1.86.95 2.55a2.905 2.905 0 004.1.34c.13-.1.24-.21.34-.34.59-.7.9-1.59.86-2.5.02-.89-.28-1.76-.86-2.44a2.794 2.794 0 00-2.24-.97m18.68 16.25v43.58c0 4.49-.96 8-2.91 10.51-1.95 2.51-4.93 3.78-9.01 3.78s-7.03-1.24-8.98-3.73c-1.94-2.5-2.91-6.01-2.91-10.56V16.26h-4.73v44.06c-.22 4.79 1.29 9.51 4.24 13.29 2.83 3.41 6.96 5.11 12.41 5.11s9.5-1.7 12.36-5.11c2.98-3.77 4.5-8.49 4.29-13.29 0-5.87-.01-20.54-.02-44.02h-4.74zm-57.45 29.48h-7.29V20.53h6.61c7.59 0 9.77 2.76 10.85 3.06 2.18 2.03 3.27 5.15 3.27 9.33 0 4.19-1.12 7.61-3.35 9.71-2.23 2.1-5.58 3.14-10.04 3.14m7.18 3.22c3.33-.89 6.25-2.9 8.28-5.69 2.04-3.06 3.06-6.7 2.92-10.38 0-11.13-6.32-16.69-18.94-16.68h-11.52v61.5h4.74v-27.7h8.66l1.29-.09 12.98 27.7 5.38.07c-8.58-17.87-13.17-27.45-13.79-28.73zm-48.65 24.36h-8.91V47.48h9.56c3.5-.22 6.95.94 9.59 3.23 3.4 3.24 3.05 8.98 3.39 9.97 0 8.45-4.55 12.67-13.63 12.66m7.9-50.07c2.26 1.82 3.38 4.73 3.38 8.68.19 3.04-.86 6.03-2.92 8.29-2.2 2.1-5.17 3.19-8.2 3.02h-9.07V20.53h6.81c6.6 0 9 2.47 10 2.74zm-1.77 21.87c2.89-.6 5.48-2.21 7.29-4.54a14.43 14.43 0 002.64-9.02c0-7.45-4.37-10.26-4.85-11.4-3.25-2.63-7.86-3.94-13.84-3.94H169.7v61.5h13.54c8.75 0 12.35-3.94 13.72-4.37 4.96-4.38 4.4-11.47 4.89-12.75 0-4.91-1.11-8.58-3.36-11.05-2.35-2.51-5.53-4.1-8.97-4.48m-69.98-15.65l5.56 8.98 10.43-7.82v47.14h12.33v-60.6h-11.27l-17.05 12.3zM98.05 15.8c-7.18 0-13.01 3.46-17.49 10.4 4.37 3.78 6.8 5.88 7.29 6.3 1.2-1.76 2.68-3.33 4.37-4.64 1.3-.95 2.88-1.46 4.49-1.45 1.7-.09 3.34.62 4.45 1.92a8.525 8.525 0 011.58 5.53c0 2.73-.56 5.43-1.63 7.94a51.59 51.59 0 01-5.83 9.7c-2.82 3.89-7.1 9.32-12.86 16.3v9.87h32.92c.79-6.42 1.23-9.98 1.32-10.69H96.17c7.92-8.96 10.83-13.25 12.03-14.72 2.38-3.14 4.34-6.56 5.83-10.2a26.83 26.83 0 001.63-9.3c.04-2.99-.66-5.95-2.04-8.61a15.243 15.243 0 00-6-6.15c-2.9-1.6-6.18-2.38-9.5-2.28M59.43 25.91c1.46-.01 2.82.71 3.64 1.91 1.14 2 1.81 4.23 1.96 6.52.5 4.35.72 8.73.65 13.11.07 4.42-.13 8.85-.61 13.25-.13 2.28-.8 4.5-1.97 6.47a4.36 4.36 0 01-3.74 1.85c-1.48.05-2.87-.65-3.72-1.85a15.234 15.234 0 01-2-6.5c-.5-4.39-.72-8.8-.65-13.21-.08-4.37.14-8.75.65-13.11.18-2.29.86-4.52 2-6.52a4.387 4.387 0 013.72-1.88m0-10.19a15.768 15.768 0 00-14.29 7.98c-4.81 8.05-4.33 21.37-4.81 23.74 0 15.7 4.39 21.38 4.88 23.76 2.89 5.14 8.4 8.23 14.29 8.02 5.89.2 11.4-2.89 14.29-8.02 4.88-8.05 4.39-21.39 4.88-23.76 0-15.71-4.43-21.25-4.93-23.61a15.775 15.775 0 00-14.24-8.07m-41.65 0C10.6 15.8 4.77 19.26.29 26.2c4.38 3.78 6.81 5.88 7.29 6.3 1.17-1.77 2.61-3.35 4.26-4.68a7.57 7.57 0 014.48-1.46c1.7-.09 3.35.63 4.45 1.93a8.497 8.497 0 011.58 5.52c0 2.73-.56 5.44-1.63 7.95a50.552 50.552 0 01-5.83 9.7c-2.79 3.88-7.07 9.32-12.85 16.29v9.87h32.97c.78-6.41 1.22-9.97 1.31-10.68h-20.5c7.92-8.97 10.84-13.25 12.04-14.73 2.36-3.13 4.3-6.55 5.76-10.19 1.1-2.98 1.65-6.13 1.64-9.3.03-3-.67-5.96-2.05-8.62a15.156 15.156 0 00-5.99-6.15c-2.91-1.59-6.2-2.37-9.52-2.28"
              id="d"/>
    </defs>
    <use xlink:href="#a" fill="#fff"/>
    <use xlink:href="#a" fill-opacity="0" stroke="#000" stroke-opacity="0"/>
    <use xlink:href="#b" fill="#fff"/>
    <use xlink:href="#b" fill-opacity="0" stroke="#000" stroke-opacity="0"/>
    <g>
        <use xlink:href="#c" fill="#fff"/>
        <use xlink:href="#c" fill-opacity="0" stroke="#000" stroke-opacity="0"/>
    </g>
    <g>
        <use xlink:href="#d" fill="#fff"/>
        <use xlink:href="#d" fill-opacity="0" stroke="#000" stroke-opacity="0"/>
    </g>
</svg>
