<svg xmlns="http://www.w3.org/2000/svg" xmlns:xlink="http://www.w3.org/1999/xlink" version="1.1"
     preserveAspectRatio="xMidYMid meet"
     viewBox="0.043732774525652274 232.96972108404924 639.6209826207777 174.05616944966692" width="640" height="174">
    <defs>
        <path d="M639.64 343.36L627.65 343.36C627.65 358.88 627.65 367.5 627.65 369.23C627.66 377.07 628.29 384.9 629.54 392.64C628.55 389.36 623.63 372.93 614.77 343.36L597.77 343.36L597.77 406.04L609.75 406.04C609.75 392.04 609.75 384.26 609.75 382.71C609.75 375.73 609.37 371.67 609.33 370.45C609.03 366.92 608.63 362.99 608.13 358.64C608.12 358.04 608.06 357.44 607.95 356.84C608.93 360.12 613.79 376.52 622.54 406.04L639.66 406.04L639.64 343.36ZM573.39 406.04L587.11 406.04L587.11 343.36L573.41 343.36L573.39 406.04ZM532.34 343.36L532.34 406.04L565.21 406.04L566.69 394.54L546.02 394.54L546.02 343.36L532.34 343.36ZM496.02 353.58C498.13 353.58 499.3 353.58 499.53 353.58C502.72 353.58 505.07 354.29 506.55 355.71C508.19 357.54 508.99 359.94 508.78 362.35C508.78 367.33 506.93 368.91 506.72 369.64C505.02 371.3 502.63 372.14 500.21 371.94C499.93 371.94 498.54 371.94 496.02 371.94L496.02 353.58ZM511.26 406.02L526.24 406.02C518.18 389.96 513.7 381.03 512.81 379.25C522.82 374.36 521.81 364.03 522.82 362.34C522.82 356 520.91 351.27 517.09 348.1C513.26 344.92 507.46 343.35 499.7 343.35C498.54 343.35 492.73 343.35 482.29 343.35L482.29 406.02L495.99 406.02L495.99 381.93L500.42 381.93L511.26 406.02ZM440.39 343.35L440.39 406.02L473.79 406.02L473.79 395.53L454.11 395.53L454.11 379.26L470.22 379.26L470.22 369.14L454.11 369.14L454.11 353.68L472.52 353.68L473.99 343.36L440.39 343.35ZM408.7 395.53L404.76 395.53L404.76 378.24C407.53 378.24 409.07 378.24 409.38 378.24C418.46 378.24 417.55 386.21 418.46 387.1C418.46 391.81 416.22 393.04 415.98 393.71C413.84 395.1 411.28 395.77 408.7 395.6M407.84 353.64C410.16 353.45 412.47 354.08 414.34 355.41C415.83 356.86 416.58 358.85 416.4 360.88C416.4 366 413.78 368.56 408.52 368.56L404.76 368.56L404.76 353.58C406.4 353.61 407.43 353.63 407.84 353.64ZM419.9 372.9C422.83 372.12 425.43 370.5 427.36 368.25C429.4 365.74 430.44 362.62 430.31 359.43C430.31 351.28 424.77 348.57 424.15 347.36C420.05 344.74 414.2 343.43 406.6 343.42L391.1 343.42L391.1 406.09C401.61 406.09 407.46 406.09 408.62 406.09C432.51 406.09 430.12 389.65 432.51 387.82C432.51 381.05 429.39 378.63 429.04 377.6C426.54 375.21 423.37 373.58 419.92 372.9M361.53 343.14C357.55 343.13 353.68 344.35 350.49 346.62C346.79 349.35 343.97 353.03 342.35 357.24C340.13 362.86 339.08 368.85 339.27 374.87C339.27 390.98 344.5 396.55 345.08 398.96C348.66 404.19 354.82 407.24 361.32 407.01C366.98 406.98 372.48 405.2 377 401.94C377 399.99 377 390.23 377 372.66L361.35 372.66L361.96 377.09L372.14 377.09C372.14 390.44 372.14 397.85 372.14 399.33C368.94 401.42 365.14 402.53 361.26 402.51C344.49 402.51 346.17 377.59 344.49 374.83C344.32 369.47 345.13 364.13 346.89 359.05C348.03 355.6 350.2 352.55 353.13 350.28C355.56 348.55 358.5 347.61 361.53 347.61C363.64 347.57 365.74 347.96 367.69 348.75C369.71 349.67 371.57 350.9 373.18 352.4C373.47 352.09 375.84 349.56 376.13 349.24C374.15 347.35 371.87 345.78 369.37 344.58C366.91 343.57 364.25 343.08 361.57 343.16M312.15 348.48L321.91 384.65L302.3 384.65L312.15 348.48ZM332.82 406.08L315.32 344.08L309.15 344.08L291.6 406.04L296.48 406.04L301.11 389.03L323.1 389.03L327.74 406.04L332.82 406.08ZM256.42 344.08L256.42 348.71L271.99 348.71L271.99 406.04L276.88 406.04L276.88 348.71L292.29 348.71L292.81 344.08L256.42 344.08ZM229.53 373.85L221.83 373.85L221.83 348.48C225.99 348.48 228.3 348.48 228.77 348.48C236.74 348.48 239.01 351.23 240.15 351.54C243.56 354.6 243.23 360.01 243.57 360.95C243.57 367.54 240.42 369.74 240.08 370.72C237.74 372.83 234.23 373.89 229.53 373.88M251.55 406.08C242.87 388.71 238.04 379.07 237.08 377.14C240.56 376.25 243.62 374.25 245.76 371.47C247.89 368.38 248.95 364.72 248.8 361.02C248.8 349.82 242.18 344.21 228.94 344.2L216.87 344.2L216.87 406.15L221.83 406.15L221.83 378.24L230.91 378.24L232.28 378.14L245.89 406.09L251.55 406.08ZM177.26 344.08L177.26 406.04L204.84 406.04L204.84 401.6L182.23 401.6L182.23 376.09L200.89 376.09L200.89 371.77L182.23 371.77L182.23 348.48L203.73 348.48L204.32 344.04L177.26 344.08ZM148.23 343.09C145.39 343.05 142.58 343.74 140.1 345.08C137.74 346.37 135.8 348.27 134.49 350.55C133.14 352.92 132.45 355.58 132.48 358.29C132.31 361.93 133.57 365.51 136 368.32C139.49 372.18 146.4 374.47 147.56 375.15C150.16 376.08 152.64 377.31 154.94 378.81C156.57 379.89 157.88 381.35 158.75 383.06C159.59 385.01 159.99 387.11 159.91 389.21C160.1 392.74 158.84 396.2 156.4 398.85C154.02 401.25 150.68 402.55 147.23 402.42C144.6 402.48 141.98 401.94 139.61 400.83C137.19 399.6 134.99 398 133.1 396.09C132.82 396.39 130.56 398.85 130.28 399.16C134.45 404.09 140.71 406.95 147.32 406.94C150.57 407 153.77 406.2 156.58 404.63C159.24 403.11 161.39 400.88 162.78 398.21C164.26 395.37 165.01 392.22 164.96 389.04C164.96 381.62 161.65 378.84 161.29 377.7C158.04 374.58 154.09 372.22 149.73 370.83C145.09 369.14 141.9 367.37 140.13 365.54C138.27 363.48 137.32 360.8 137.47 358.07C137.34 355.26 138.4 352.52 140.42 350.48C142.5 348.54 145.33 347.51 148.22 347.64C150.45 347.61 152.66 348.06 154.69 348.96C156.9 350.04 158.89 351.48 160.59 353.21C160.87 352.9 163.14 350.37 163.43 350.05C161.46 347.96 159.13 346.21 156.53 344.89C153.92 343.7 151.06 343.12 148.18 343.18M109.76 327.73C108.85 327.7 107.97 328.07 107.36 328.72C106.73 329.39 106.4 330.26 106.43 331.16C106.38 332.08 106.69 332.99 107.31 333.7C107.93 334.34 108.8 334.71 109.72 334.69C110.6 334.7 111.45 334.34 112.02 333.7C112.66 333 113 332.09 112.97 331.16C112.99 330.26 112.65 329.39 112.02 328.72C111.45 328.08 110.6 327.71 109.72 327.73M94.95 327.73C94.07 327.71 93.23 328.08 92.65 328.72C92.02 329.39 91.68 330.26 91.71 331.16C91.67 332.09 92.01 333 92.65 333.7C93.82 334.93 95.81 335.03 97.09 333.91C97.17 333.84 97.25 333.77 97.32 333.7C97.93 332.98 98.25 332.08 98.22 331.16C98.24 330.27 97.92 329.4 97.32 328.72C96.73 328.06 95.86 327.69 94.95 327.73M101.97 348.48L111.74 384.61L92.12 384.61L101.97 348.48ZM122.64 406.08L105.14 344.08L98.97 344.08L81.42 406.04L86.3 406.04L90.92 389.03L112.92 389.03L117.56 406.04L122.64 406.08ZM46.86 344.08L46.86 406.04L73.14 406.04L73.83 401.33L51.82 401.33L51.82 344.08L46.86 344.08ZM14.3 401.6L5.02 401.6L5.02 375.56C11.02 375.56 14.36 375.56 15.03 375.56C18.7 375.34 22.31 376.5 25.1 378.81C27.46 380.98 28.65 384.32 28.65 388.84C28.65 397.35 23.89 401.6 14.35 401.6M12.21 348.48C16.83 348.48 20.33 349.39 22.69 351.23C25.05 353.07 26.25 355.98 26.25 359.96C26.45 363.03 25.33 366.05 23.16 368.32C20.85 370.42 17.75 371.52 14.57 371.35C13.93 371.35 10.75 371.35 5.02 371.35L5.02 348.48C8.85 348.48 11.25 348.48 12.21 348.48ZM20.86 373.25C23.9 372.65 26.62 371.03 28.52 368.68C30.48 366.03 31.45 362.83 31.3 359.59C31.3 352.08 26.71 349.26 26.2 348.11C22.81 345.46 17.97 344.12 11.69 344.08L0.04 344.08L0.04 406.04C8.6 406.04 13.35 406.04 14.3 406.04C23.56 406.04 27.26 402.12 28.7 401.68C33.84 397.33 33.32 390.13 33.84 388.84C33.84 383.91 32.66 380.2 30.32 377.73C27.85 375.19 24.51 373.59 20.9 373.21"
              id="baIbIGyW"/>
        <path d="M618.63 278.76L611.34 278.76L611.34 253.51C615.31 253.51 617.52 253.51 617.96 253.51C625.54 253.51 627.73 256.27 628.82 256.57C630.99 258.6 632.08 261.72 632.08 265.9C632.08 270.09 630.96 273.51 628.73 275.61C626.5 277.71 623.15 278.75 618.69 278.75M639.66 310.71C631.39 293.47 626.79 283.9 625.87 281.98C629.21 281.09 632.13 279.07 634.15 276.28C636.19 273.22 637.22 269.58 637.07 265.9C637.07 254.77 630.75 249.2 618.12 249.21L606.6 249.21L606.6 310.73L611.34 310.73L611.34 283.03L620 283.03L621.3 282.94L634.29 310.64L639.66 310.71ZM570.42 249.23L570.42 310.73L596.66 310.73L596.66 306.36L575.16 306.36L575.16 281L592.96 281L592.96 276.7L575.16 276.7L575.16 253.61L595.65 253.61L596.22 249.24L570.42 249.23ZM556.37 310.73L556.37 249.23L551.69 249.23L551.69 276.17L527.93 276.17L527.93 249.23L523.19 249.23L523.19 310.73L527.93 310.73L527.93 280.55L551.69 280.55L551.69 310.73L556.37 310.73ZM500.45 248.23C496.67 248.21 492.99 249.44 490 251.73C486.61 254.52 484.09 258.21 482.71 262.37C480.78 268 479.87 273.92 480.03 279.87C479.87 285.83 480.75 291.77 482.63 297.43C483.99 301.62 486.52 305.33 489.92 308.12C492.96 310.46 496.7 311.71 500.54 311.66C505.78 311.67 510.77 309.38 514.17 305.38C513.91 305.05 511.82 302.39 511.56 302.05C510.04 303.53 508.34 304.8 506.5 305.83C504.7 306.75 502.69 307.2 500.67 307.14C493.66 307.14 490.46 301.08 489.33 300.41C485 293.67 485.39 281.97 484.95 279.93C484.95 265.74 488.89 261.3 489.33 259.23C491.68 255.2 496 252.72 500.67 252.72C502.51 252.68 504.34 253.05 506.02 253.8C507.82 254.69 509.49 255.84 510.96 257.21C511.21 256.88 513.23 254.22 513.48 253.89C511.76 252.14 509.76 250.7 507.56 249.62C505.31 248.64 502.87 248.17 500.42 248.23M455.7 248.23C452.98 248.19 450.3 248.87 447.94 250.2C445.69 251.49 443.84 253.37 442.59 255.64C441.3 257.99 440.64 260.64 440.68 263.32C440.51 266.96 441.7 270.53 444.02 273.34C447.36 277.14 453.94 279.44 455.04 280.12C457.55 281.03 459.93 282.25 462.14 283.75C463.7 284.83 464.96 286.3 465.78 288.02C466.57 289.95 466.95 292.03 466.88 294.12C467.06 297.63 465.86 301.06 463.54 303.69C461.26 306.07 458.08 307.35 454.79 307.23C452.27 307.29 449.77 306.75 447.5 305.66C445.19 304.43 443.1 302.84 441.29 300.95C441.02 301.25 438.88 303.69 438.61 303.99C442.58 308.89 448.55 311.73 454.85 311.72C457.94 311.78 461 310.99 463.67 309.43C466.23 307.93 468.31 305.72 469.65 303.08C471.06 300.25 471.77 297.12 471.73 293.96C471.73 289.07 470.55 285.29 468.22 282.65C465.13 279.54 461.36 277.2 457.2 275.83C450.56 273.32 448.97 271.11 448.06 270.58C446.29 268.53 445.38 265.87 445.52 263.16C445.41 260.36 446.47 257.63 448.44 255.63C450.4 253.67 453.1 252.61 455.87 252.71C457.99 252.68 460.09 253.12 462.02 254.01C464.11 255.07 466 256.49 467.62 258.19C467.89 257.88 470.05 255.36 470.32 255.04C468.44 252.96 466.22 251.23 463.74 249.93C461.26 248.74 458.53 248.15 455.78 248.22M424.4 310.73L429.14 310.73L429.14 249.23L424.4 249.23L424.4 310.73ZM394.05 278.76L386.76 278.76L386.76 253.51C390.72 253.51 392.92 253.51 393.36 253.51C398.42 253.51 402.11 254.53 404.22 256.57C406.34 258.61 407.49 261.72 407.49 265.9C407.49 270.09 406.36 273.51 404.13 275.61C401.9 277.71 398.57 278.75 394.11 278.75M415.08 310.71C406.8 293.47 402.2 283.9 401.28 281.98C404.61 281.09 407.54 279.07 409.57 276.28C411.61 273.21 412.63 269.58 412.49 265.9C412.49 254.77 406.17 249.2 393.54 249.21L382.03 249.21L382.03 310.73L386.77 310.73L386.77 283.03L395.42 283.03L396.73 282.94L409.7 310.64L415.08 310.71ZM345.84 249.23L345.84 310.73L372.08 310.73L372.08 306.36L350.52 306.36L350.52 281L368.3 281L368.3 276.7L350.52 276.7L350.52 253.61L371 253.61L371.57 249.24L345.84 249.23ZM311.42 253.6C314.53 253.53 317.62 254.18 320.44 255.49C323.04 256.75 325.17 259.28 326.86 263.07C328.55 266.86 329.38 272.35 329.38 279.46C329.38 294.74 324.97 298.46 324.48 300.57C321.4 304.37 316.72 306.53 311.83 306.4C311.4 306.4 309.23 306.4 305.33 306.4L305.33 253.61C308.58 253.61 310.61 253.6 311.42 253.6ZM310.78 249.23L300.58 249.23L300.58 310.73C307.19 310.73 310.86 310.73 311.6 310.73C317.73 310.85 323.63 308.33 327.79 303.82C334.37 296.91 333.71 281.91 334.37 279.47C334.37 262.04 328.53 258.06 327.88 255.68C323.54 251.32 317.84 249.17 310.78 249.23M277.48 232.97C276.61 232.94 275.77 233.3 275.2 233.95C274.6 234.62 274.28 235.49 274.31 236.38C274.26 237.32 274.58 238.23 275.2 238.93C275.77 239.59 276.61 239.95 277.48 239.93C278.33 239.93 279.13 239.57 279.69 238.93C280.29 238.23 280.6 237.31 280.55 236.38C280.57 235.49 280.24 234.61 279.64 233.95C279.08 233.32 278.28 232.96 277.44 232.97M263.4 232.97C262.56 232.96 261.76 233.32 261.2 233.95C260.6 234.61 260.28 235.49 260.3 236.38C260.26 237.33 260.6 238.24 261.25 238.93C262.29 240.16 264.13 240.31 265.35 239.27C265.48 239.17 265.59 239.06 265.69 238.93C266.28 238.23 266.59 237.34 266.55 236.43C266.57 235.54 266.27 234.67 265.69 233.99C265.13 233.34 264.3 232.98 263.45 233.02M286.87 249.27L282.13 249.27C282.13 275.43 282.13 289.96 282.13 292.87C282.13 297.36 281.17 300.87 279.22 303.38C277.27 305.89 274.29 307.16 270.21 307.16C266.13 307.16 263.18 305.92 261.23 303.43C259.28 300.93 258.31 297.42 258.31 292.87C258.31 289.96 258.31 275.41 258.31 249.23L253.58 249.23C253.58 275.68 253.58 290.37 253.58 293.31C253.36 298.1 254.87 302.82 257.82 306.6C260.66 310.01 264.79 311.72 270.24 311.72C275.69 311.72 279.74 310.01 282.6 306.6C285.58 302.83 287.1 298.11 286.89 293.31C286.89 287.44 286.88 272.76 286.87 249.27ZM224.66 278.76L217.37 278.76L217.37 253.51C221.34 253.51 223.54 253.51 223.98 253.51C231.58 253.51 233.76 256.27 234.84 256.57C237.02 258.6 238.11 261.72 238.11 265.9C238.11 270.09 236.99 273.51 234.76 275.61C232.53 277.71 229.17 278.75 224.71 278.75M245.69 310.71C237.42 293.47 232.82 283.9 231.9 281.98C235.23 281.09 238.15 279.07 240.18 276.28C242.22 273.22 243.24 269.58 243.1 265.9C243.1 254.77 236.78 249.2 224.15 249.21L212.63 249.21L212.63 310.73L217.37 310.73L217.37 283.03L226.03 283.03L227.32 282.94L240.31 310.64L245.69 310.71ZM183.23 306.34L174.32 306.34L174.32 280.47C180.06 280.47 183.24 280.47 183.88 280.47C187.38 280.24 190.83 281.41 193.47 283.7C196.87 286.94 196.52 292.68 196.86 293.67C196.86 302.12 192.31 306.34 183.23 306.33M181.13 253.51C187.73 253.51 190.13 255.98 191.13 256.25C193.39 258.07 194.51 260.98 194.51 264.93C194.7 267.97 193.65 270.96 191.59 273.22C189.39 275.32 186.42 276.41 183.39 276.24C182.78 276.24 179.76 276.24 174.32 276.24L174.32 253.51C177.95 253.51 180.22 253.51 181.13 253.51ZM189.36 278.12C192.25 277.52 194.84 275.91 196.65 273.58C198.52 270.96 199.45 267.78 199.3 264.56C199.3 257.11 194.92 254.3 194.44 253.16C191.19 250.53 186.58 249.21 180.6 249.21L169.51 249.21L169.51 310.73C177.63 310.73 182.15 310.73 183.05 310.73C191.8 310.73 195.4 306.79 196.77 306.36C201.74 301.98 201.18 294.89 201.67 293.61C201.67 288.7 200.56 285.03 198.31 282.56C195.95 280.04 192.77 278.45 189.33 278.07M136.39 250.12L119.33 262.42L124.89 271.4L135.32 263.58L135.32 310.73L147.66 310.73L147.66 250.12L136.39 250.12ZM97.83 248.77C90.65 248.77 84.82 252.24 80.34 259.18C84.71 262.96 87.14 265.06 87.63 265.48C88.83 263.72 90.31 262.15 92 260.84C93.3 259.89 94.88 259.38 96.49 259.39C98.19 259.3 99.83 260.01 100.94 261.31C102.09 262.91 102.65 264.87 102.52 266.84C102.52 269.57 101.96 272.27 100.89 274.78C99.31 278.22 97.35 281.48 95.06 284.49C92.24 288.38 87.96 293.81 82.2 300.79L82.2 310.66L115.13 310.66L116.45 299.97C104.15 299.97 97.32 299.97 95.95 299.97C103.87 291.01 106.79 286.72 107.99 285.25C110.37 282.11 112.33 278.68 113.82 275.04C114.91 272.06 115.46 268.91 115.45 265.74C115.49 262.75 114.79 259.79 113.41 257.13C112.04 254.55 109.96 252.41 107.41 250.98C104.5 249.38 101.22 248.59 97.9 248.69M59.2 258.89C60.66 258.88 62.02 259.6 62.84 260.8C63.98 262.8 64.65 265.03 64.8 267.32C65.3 271.67 65.52 276.05 65.45 280.44C65.52 284.86 65.32 289.29 64.84 293.69C64.71 295.97 64.04 298.19 62.87 300.16C62.02 301.37 60.61 302.07 59.13 302.01C57.65 302.06 56.26 301.36 55.41 300.16C54.26 298.17 53.58 295.95 53.41 293.66C52.91 289.27 52.69 284.86 52.76 280.45C52.68 276.07 52.9 271.69 53.41 267.33C53.59 265.04 54.27 262.81 55.41 260.81C56.25 259.6 57.65 258.89 59.13 258.93M59.13 248.73C53.25 248.52 47.74 251.6 44.84 256.72C40.02 264.77 40.5 278.09 40.02 280.47C40.02 296.17 44.42 301.85 44.91 304.23C47.8 309.37 53.31 312.47 59.2 312.26C65.09 312.46 70.6 309.36 73.49 304.23C78.38 296.18 77.89 282.84 78.38 280.47C78.38 264.75 73.94 259.21 73.44 256.85C70.57 251.71 65.08 248.6 59.2 248.77M17.54 248.77C10.35 248.77 4.52 252.24 0.04 259.18C4.42 262.96 6.85 265.06 7.33 265.48C8.5 263.71 9.94 262.13 11.59 260.8C12.89 259.85 14.47 259.34 16.08 259.34C17.78 259.25 19.43 259.97 20.53 261.27C21.68 262.87 22.24 264.82 22.11 266.79C22.11 269.52 21.55 272.23 20.48 274.74C18.91 278.18 16.95 281.44 14.65 284.45C11.85 288.33 7.57 293.77 1.79 300.74L1.79 310.61L34.77 310.61L36.08 299.93C23.78 299.93 16.95 299.93 15.58 299.93C23.5 290.96 26.42 286.68 27.62 285.2C29.98 282.07 31.92 278.64 33.38 275C34.48 272.02 35.03 268.87 35.02 265.7C35.05 262.7 34.35 259.74 32.97 257.08C31.61 254.5 29.53 252.36 26.98 250.93C24.07 249.34 20.78 248.55 17.46 248.64"
              id="ablFjDfVp"/>
    </defs>
    <g>
        <g>
            <use xlink:href="#baIbIGyW" opacity="1" fill="#1d1d1b" fill-opacity="1"/>
            <g>
                <use xlink:href="#baIbIGyW" opacity="1" fill-opacity="0" stroke="#000000" stroke-width="1"
                     stroke-opacity="0"/>
            </g>
        </g>
        <g>
            <use xlink:href="#ablFjDfVp" opacity="1" fill="#1d1d1b" fill-opacity="1"/>
            <g>
                <use xlink:href="#ablFjDfVp" opacity="1" fill-opacity="0" stroke="#000000" stroke-width="1"
                     stroke-opacity="0"/>
            </g>
        </g>
    </g>
</svg>