<?xml version="1.0" standalone="no"?>
<!DOCTYPE svg PUBLIC "-//W3C//DTD SVG 20010904//EN"
 "http://www.w3.org/TR/2001/REC-SVG-20010904/DTD/svg10.dtd">
<svg version="1.0" xmlns="http://www.w3.org/2000/svg"
 width="1333.000000pt" height="1333.000000pt" viewBox="0 0 1333.000000 1333.000000"
 preserveAspectRatio="xMidYMid meet">
<metadata>
Created by potrace 1.11, written by Peter Selinger 2001-2013
</metadata>
<g transform="translate(0.000000,1333.000000) scale(0.100000,-0.100000)"
fill="#000000" stroke="none">
<path d="M0 10115 l0 -3215 3215 0 3215 0 0 3215 0 3215 -3215 0 -3215 0 0
-3215z m2625 2745 c91 -13 128 -31 303 -148 l112 -76 153 -2 153 -2 62 -38
c35 -20 68 -46 74 -57 15 -28 3 -156 -21 -232 -10 -33 -18 -62 -16 -63 2 -2
72 -10 157 -18 84 -7 226 -20 316 -29 89 -8 233 -22 320 -30 375 -34 420 -42
557 -92 167 -61 301 -146 429 -271 173 -167 281 -368 343 -632 24 -105 24
-366 0 -470 -61 -259 -160 -443 -327 -610 -71 -71 -210 -182 -210 -167 0 2 9
25 20 49 18 42 40 188 27 188 -3 0 -41 -25 -84 -56 -107 -78 -238 -139 -363
-171 -134 -33 -339 -38 -463 -9 -412 95 -696 383 -799 806 -17 71 -17 349 0
406 l12 42 98 11 c231 28 474 75 586 112 34 11 95 39 136 61 212 115 345 235
425 383 34 62 113 145 138 145 20 0 110 -43 172 -82 66 -42 191 -145 210 -174
51 -78 -52 -230 -300 -444 -222 -191 -311 -247 -1162 -739 -40 -23 -73 -45
-73 -49 0 -4 55 -43 123 -87 67 -44 146 -99 177 -121 107 -81 386 -204 462
-204 42 0 109 39 222 129 48 39 89 71 90 71 0 0 54 18 119 40 141 48 201 52
241 15 15 -14 26 -35 26 -50 0 -14 4 -25 9 -25 16 0 126 125 175 199 116 174
169 353 169 571 0 113 -4 152 -26 240 -30 118 -111 292 -177 378 -33 43 -40
60 -40 97 0 92 -67 203 -147 244 -47 24 -131 33 -208 21 -59 -9 -79 -8 -107 3
-84 35 -192 52 -338 52 -186 0 -305 -28 -465 -107 -251 -125 -442 -347 -529
-615 -10 -29 -21 -53 -25 -53 -15 0 -126 41 -134 49 -25 25 92 280 186 406
105 140 268 281 409 352 l53 27 -35 7 c-33 7 -401 39 -448 39 -15 0 -24 -8
-28 -25 -12 -49 -48 -68 -281 -150 -242 -85 -311 -132 -298 -204 19 -109 239
-369 370 -437 l51 -27 -14 -51 c-19 -74 -27 -313 -13 -421 25 -189 116 -410
234 -565 36 -47 64 -86 62 -88 -7 -8 -196 62 -254 94 -158 87 -315 243 -436
434 -85 134 -216 452 -240 583 -4 20 -10 39 -14 42 -8 4 -477 -2013 -470
-2020 3 -2 36 32 74 76 73 85 215 214 325 296 192 144 418 246 610 274 98 14
273 8 380 -14 41 -9 127 -25 190 -37 131 -24 190 -35 415 -81 140 -29 180 -33
320 -33 116 0 183 4 243 17 101 22 239 69 310 107 28 15 52 25 52 21 0 -20
-102 -108 -179 -153 -47 -28 -111 -70 -141 -93 -108 -83 -218 -103 -558 -105
-224 -2 -229 -1 -347 29 -66 18 -157 43 -203 58 -45 14 -85 24 -87 21 -18 -18
-73 -292 -81 -403 -6 -83 -5 -94 12 -109 36 -33 219 -157 326 -222 119 -72
180 -132 272 -269 117 -173 130 -234 102 -481 -37 -332 -32 -482 20 -543 60
-72 210 -81 336 -22 119 56 199 52 257 -14 80 -91 60 -253 -40 -317 -22 -14
-88 -38 -151 -53 -62 -15 -185 -51 -273 -80 -257 -84 -274 -88 -365 -89 -81
-1 -87 1 -136 34 -28 19 -57 44 -64 55 -24 37 -41 120 -50 245 -14 195 -85
391 -176 485 -97 99 -405 324 -537 392 -133 68 -228 12 -418 -246 -99 -133
-119 -153 -237 -233 -57 -39 -114 -85 -127 -103 -28 -36 -32 -82 -10 -124 17
-34 38 -41 130 -41 39 0 88 -5 110 -11 46 -13 111 -73 121 -113 9 -39 -20 -98
-75 -149 -103 -96 -220 -103 -384 -23 -238 117 -468 309 -528 441 -38 83 -23
233 81 780 31 166 36 224 21 240 -23 25 -71 131 -81 181 -15 71 -4 138 49 299
308 945 325 999 323 1072 -1 61 -34 213 -93 423 -44 156 -56 198 -79 274 -24
81 -25 154 -8 454 14 254 6 338 -49 517 -45 144 -48 218 -14 344 12 46 27 129
33 185 11 93 10 107 -10 182 -14 49 -22 110 -22 156 0 71 2 78 26 97 37 29
152 29 224 1 64 -25 120 -25 192 0 30 10 84 24 119 29 75 12 300 7 414 -9z"/>
<path d="M6902 10118 l3 -3213 3213 -3 3212 -2 0 3215 0 3215 -3215 0 -3215 0
2 -3212z m2293 2741 c85 -14 95 -18 268 -132 l137 -90 153 -2 152 -2 63 -38
c34 -21 68 -47 74 -58 15 -29 4 -138 -24 -234 -29 -95 -38 -85 91 -107 l85
-14 49 48 c57 56 136 101 222 125 67 20 159 18 415 -10 151 -16 289 -30 625
-65 110 -11 262 -27 338 -35 507 -53 545 -56 630 -45 222 27 372 102 520 259
37 39 67 69 67 67 0 -3 -22 -162 -49 -353 -28 -191 -61 -431 -76 -533 -36
-262 -29 -248 -76 -159 -81 155 -218 285 -384 363 -98 47 -162 66 -300 91 -98
18 -836 155 -1270 236 -317 59 -375 61 -469 15 -67 -33 -64 -39 34 -54 36 -6
119 -20 185 -32 178 -32 218 -39 875 -155 670 -118 689 -123 775 -210 26 -25
61 -76 78 -113 40 -85 49 -209 22 -294 -63 -195 -246 -310 -443 -280 -69 11
-504 87 -557 98 l-30 7 69 62 68 62 121 -23 c391 -72 407 -74 478 -52 93 27
169 134 169 238 0 81 -15 123 -66 178 -63 71 -70 73 -397 128 -54 9 -100 14
-103 12 -2 -3 0 -27 6 -53 13 -58 1 -135 -34 -210 -26 -58 -159 -205 -185
-205 -31 -1 -651 114 -651 120 0 4 30 27 68 53 80 54 192 165 231 228 63 101
92 152 88 155 -2 3 -222 43 -487 90 -461 82 -485 85 -497 68 -24 -33 -37 -98
-37 -179 1 -103 27 -172 94 -248 74 -82 139 -110 335 -146 l160 -29 -99 -47
c-118 -56 -144 -61 -222 -45 -98 20 -181 67 -259 145 -116 116 -161 238 -152
405 3 52 12 115 21 139 9 24 15 46 13 48 -9 8 -172 32 -175 25 -1 -4 -11 -21
-21 -38 -22 -37 -72 -61 -246 -121 -238 -83 -325 -134 -325 -193 0 -67 127
-251 255 -368 72 -66 143 -107 254 -146 72 -26 77 -26 175 -16 134 14 319 45
436 71 52 12 104 22 115 21 25 -1 769 -133 773 -137 4 -4 -160 -130 -243 -186
-38 -26 -223 -136 -410 -245 -187 -108 -382 -221 -432 -251 -51 -29 -93 -57
-93 -62 0 -4 46 -38 103 -74 57 -36 134 -89 172 -118 75 -56 291 -165 392
-198 114 -38 126 -34 300 100 62 48 124 86 160 100 187 68 266 77 308 34 65
-64 -1 -316 -113 -429 -26 -27 -87 -73 -137 -103 -49 -30 -118 -74 -153 -99
-108 -76 -201 -92 -537 -95 -251 -2 -247 -2 -490 68 -66 20 -127 38 -136 40
-12 3 -20 -5 -28 -29 -25 -75 -62 -279 -68 -369 -5 -86 -4 -98 13 -113 36 -33
218 -157 324 -221 117 -71 162 -113 245 -229 142 -200 153 -245 129 -499 -22
-244 -29 -443 -15 -494 37 -135 188 -171 381 -89 137 57 207 46 267 -45 24
-36 27 -52 27 -113 0 -75 -10 -103 -53 -149 -37 -40 -63 -52 -182 -82 -57 -14
-180 -51 -273 -81 -304 -100 -408 -116 -471 -74 -16 11 -44 29 -61 40 -53 35
-71 90 -84 260 -11 145 -42 265 -100 386 -30 63 -54 95 -107 144 -138 129
-448 343 -557 385 -34 13 -51 14 -82 6 -77 -21 -192 -133 -311 -301 -69 -97
-98 -126 -209 -200 -126 -85 -154 -117 -154 -174 0 -72 14 -82 129 -89 143 -9
216 -46 241 -123 15 -45 -12 -105 -72 -160 -62 -58 -119 -77 -210 -72 -62 3
-88 11 -173 51 -202 97 -416 266 -505 399 l-40 60 0 105 c0 105 19 252 65 495
14 73 35 186 46 251 23 133 28 106 -47 247 -26 50 -29 64 -28 150 0 92 3 104
86 355 96 288 222 682 264 820 22 73 25 101 21 155 -7 75 -55 272 -134 545
-30 105 -57 215 -60 245 -3 30 3 159 12 285 23 301 14 388 -61 625 -23 73 -26
96 -21 165 3 44 13 101 21 125 8 25 23 98 32 164 16 109 16 122 1 170 -28 88
-40 197 -28 244 14 49 30 59 103 68 43 5 68 1 129 -20 90 -31 141 -33 208 -6
28 11 79 24 113 29 76 12 335 6 433 -10z"/>
<path d="M0 3215 l0 -3215 3215 0 3215 0 -2 3213 -3 3212 -3212 3 -3213 2 0
-3215z m1251 3145 c105 -19 181 -68 432 -280 263 -221 252 -215 354 -180 120
41 285 50 485 29 135 -15 171 -30 330 -135 l133 -89 155 -5 155 -5 68 -40 c57
-33 69 -45 77 -77 13 -45 6 -97 -27 -206 -13 -46 -23 -87 -21 -92 3 -7 137
-121 660 -558 109 -91 198 -168 197 -171 -1 -8 -115 -100 -133 -107 -9 -3
-166 122 -410 325 -294 246 -397 327 -403 317 -14 -25 -76 -55 -209 -101 -193
-68 -255 -94 -298 -123 -66 -46 -112 3 409 -436 l220 -185 58 -1 c93 0 247 19
320 41 72 21 183 71 258 115 l47 28 231 -193 c127 -107 228 -198 224 -204 -13
-21 -284 -191 -390 -245 -62 -31 -113 -60 -113 -64 0 -6 95 -87 428 -366 76
-63 139 -109 145 -105 7 3 32 21 57 38 143 103 236 101 291 -6 43 -84 60 -259
34 -344 -5 -16 14 -36 96 -105 56 -47 195 -163 308 -258 113 -95 226 -182 251
-195 35 -17 62 -22 125 -22 71 0 86 4 135 31 61 34 121 105 139 164 25 83 8
194 -40 261 -12 17 -128 119 -258 228 -130 109 -342 287 -471 395 -129 109
-342 286 -472 394 -130 108 -237 200 -237 203 -1 4 31 32 69 64 l71 56 83 -68
c45 -37 204 -169 351 -293 147 -124 410 -344 584 -489 174 -145 342 -288 373
-319 223 -217 187 -574 -74 -743 -83 -53 -164 -72 -284 -67 -164 7 -173 13
-590 363 -131 110 -249 208 -262 219 -23 18 -24 18 -90 -12 -69 -32 -261 -96
-392 -131 -127 -33 -220 -45 -345 -45 -122 1 -206 16 -546 99 -126 30 -125 30
-132 3 -63 -285 -82 -402 -72 -454 5 -28 24 -45 133 -122 70 -49 166 -111 212
-138 102 -59 179 -135 261 -256 113 -170 114 -173 114 -333 -1 -77 -7 -194
-15 -260 -8 -66 -14 -174 -14 -240 -1 -102 3 -127 21 -167 31 -69 82 -93 193
-92 75 0 94 4 160 34 100 45 181 52 229 18 19 -12 45 -43 59 -68 34 -64 29
-168 -11 -228 -34 -52 -77 -74 -208 -107 -57 -15 -185 -53 -284 -85 -219 -72
-292 -90 -370 -90 -56 0 -66 3 -121 44 -83 60 -100 104 -114 296 -13 197 -84
391 -176 484 -148 150 -554 426 -628 426 -42 0 -123 -50 -189 -118 -79 -81
-97 -103 -174 -212 -46 -65 -78 -97 -132 -135 -202 -140 -226 -166 -216 -230
10 -64 23 -71 133 -78 121 -6 174 -26 213 -80 37 -51 37 -90 0 -149 -51 -80
-147 -131 -245 -130 -197 2 -641 315 -723 509 -30 71 -11 247 73 694 24 130
44 251 44 269 0 18 -12 53 -28 79 -48 78 -67 139 -66 216 0 62 17 121 138 495
272 841 250 764 236 853 -14 86 -61 272 -137 537 l-55 195 6 170 c3 94 9 235
12 315 5 110 2 167 -10 234 -9 49 -14 91 -12 93 2 2 117 -97 257 -220 694
-611 719 -636 800 -802 71 -147 100 -249 120 -430 13 -127 6 -336 -16 -452 -8
-42 -13 -78 -12 -80 3 -2 264 306 902 1067 77 91 158 187 182 215 24 27 43 53
43 56 0 4 -46 -8 -102 -27 -208 -70 -447 -103 -621 -85 -238 24 -395 91 -602
253 -507 397 -1008 809 -1013 832 -2 7 6 52 17 98 11 46 26 127 33 179 11 89
10 102 -11 191 -17 71 -22 116 -19 173 l4 78 -141 117 c-181 152 -187 155
-300 155 -108 0 -149 -18 -217 -94 -45 -50 -78 -132 -78 -192 0 -43 29 -124
58 -165 16 -21 166 -154 334 -294 l305 -255 12 -98 c7 -54 19 -116 27 -139 7
-22 14 -42 14 -45 0 -13 -764 632 -812 685 -86 96 -124 209 -116 346 9 150 82
278 206 359 115 76 227 100 353 77z m3503 -1528 c28 -16 67 -50 88 -78 56 -73
73 -131 73 -249 0 -93 -2 -105 -32 -165 -19 -39 -55 -88 -91 -123 l-59 -59
-199 169 c-110 92 -215 181 -234 197 l-34 28 49 46 c27 24 82 83 121 129 76
88 107 116 146 133 37 16 116 3 172 -28z"/>
<path d="M3677 3586 l-148 -52 28 -26 c15 -14 91 -79 168 -143 153 -128 228
-170 409 -231 138 -47 186 -51 259 -24 31 12 57 24 57 28 -1 4 -40 39 -88 79
-48 39 -181 151 -297 247 -115 97 -217 175 -225 175 -8 -1 -82 -25 -163 -53z"/>
<path d="M6907 6423 c-4 -3 -7 -1450 -7 -3215 l0 -3208 3215 0 3215 0 0 3215
0 3215 -3208 0 c-1765 0 -3212 -3 -3215 -7z m3463 -137 c91 -30 341 -111 555
-181 215 -70 554 -180 755 -245 201 -65 474 -154 607 -197 134 -43 243 -81
243 -84 0 -3 -34 -9 -75 -12 -231 -20 -499 -142 -706 -321 -93 -81 -269 -288
-269 -317 0 -4 19 -2 43 3 56 13 155 5 199 -16 76 -36 143 -129 169 -234 11
-45 20 -58 60 -88 112 -82 207 -224 229 -343 6 -29 10 -93 10 -142 l0 -87 34
-22 c57 -35 170 -164 209 -237 60 -115 80 -205 75 -347 -4 -109 -8 -133 -47
-251 -23 -71 -103 -317 -177 -545 -182 -560 -191 -584 -234 -670 -142 -279
-404 -490 -707 -570 -91 -24 -296 -46 -334 -37 -25 6 -26 11 -32 86 -6 93 -29
150 -111 275 -79 122 -171 214 -268 271 -46 27 -136 85 -201 131 -65 45 -124
85 -130 87 -22 7 -11 163 23 332 17 88 35 164 39 168 6 6 246 -56 258 -67 1
-1 -4 -26 -12 -56 -20 -73 -19 -227 1 -304 85 -329 441 -529 772 -433 142 42
266 133 343 254 43 69 61 121 308 878 144 445 145 449 138 530 -6 61 -41 165
-56 165 -4 0 -37 -94 -74 -209 -65 -202 -67 -211 -61 -283 9 -108 -12 -176
-75 -237 l-48 -46 -116 -355 c-99 -301 -122 -364 -156 -412 -157 -218 -481
-238 -662 -40 -115 125 -144 273 -88 443 11 34 18 63 15 66 -3 4 -189 43 -203
43 -10 0 9 58 97 309 55 156 103 288 106 292 3 5 46 -12 96 -37 49 -25 91 -44
93 -42 1 2 42 125 90 273 48 149 100 295 115 326 118 233 377 388 635 378 l60
-2 -3 38 c-6 73 -61 146 -149 196 l-28 17 -125 -119 c-182 -174 -382 -331
-542 -428 l-38 -23 46 129 c157 438 202 568 198 572 -2 2 -38 -14 -81 -37
-111 -57 -309 -118 -475 -146 -208 -36 -259 -40 -253 -24 14 37 124 412 122
415 -3 3 -332 101 -579 173 l-178 51 -60 -27 c-62 -28 -120 -82 -120 -112 0
-31 46 -116 107 -197 196 -260 399 -365 636 -327 31 5 57 5 57 1 0 -8 -128
-441 -356 -1204 -58 -192 -112 -390 -120 -440 -22 -123 -15 -339 14 -450 86
-327 291 -583 580 -729 96 -48 226 -90 330 -106 l83 -13 -5 -36 c-17 -109 -38
-406 -33 -468 12 -154 68 -208 217 -207 64 0 88 5 162 37 180 77 291 29 305
-132 7 -70 -8 -120 -50 -167 -41 -47 -67 -59 -194 -89 -59 -14 -173 -44 -253
-66 -233 -66 -290 -79 -376 -86 -72 -5 -86 -3 -127 17 -26 13 -55 33 -66 44
-30 33 -51 110 -57 209 -14 245 -84 440 -199 551 -166 161 -537 406 -614 406
-76 0 -211 -118 -336 -295 -84 -119 -93 -127 -222 -216 -127 -86 -158 -123
-150 -180 9 -66 28 -79 117 -79 126 0 208 -34 244 -103 27 -50 15 -94 -42
-158 -60 -67 -126 -99 -208 -99 -71 0 -112 13 -227 71 -220 110 -430 289 -501
426 -34 67 -18 245 61 658 57 302 59 343 16 410 -44 70 -67 155 -60 224 3 31
33 142 67 246 154 473 270 837 295 922 l26 93 -16 87 c-20 106 -58 254 -133
513 -56 191 -57 197 -55 310 1 63 7 167 13 230 21 245 12 347 -56 579 -32 110
-35 132 -29 193 3 38 12 90 20 116 19 66 45 219 45 268 0 23 -7 61 -16 85 -17
50 -30 203 -20 243 15 59 125 72 244 31 90 -32 111 -31 203 2 72 27 81 27 279
27 297 0 331 -10 549 -157 l106 -72 160 -5 c155 -5 161 -6 205 -34 84 -54 90
-62 90 -135 0 -78 -23 -163 -87 -324 -32 -82 -43 -121 -35 -126 19 -12 402
-104 408 -98 13 13 25 222 20 335 -19 369 -138 657 -374 904 -52 54 -91 98
-86 98 4 0 83 -24 174 -54z m628 -2514 c-1 -5 -43 -122 -92 -260 -51 -145 -94
-252 -101 -252 -7 0 -19 7 -26 16 -7 9 -78 59 -157 111 -129 85 -142 96 -126
107 11 7 98 58 194 113 96 55 202 117 235 137 60 36 80 43 73 28z"/>
<path d="M11645 3836 c-124 -39 -215 -124 -259 -241 -23 -61 -166 -506 -166
-516 0 -15 39 -10 79 11 21 10 87 56 147 101 98 73 156 108 206 123 19 5 183
498 174 522 -7 18 -124 18 -181 0z"/>
<path d="M11380 2634 c-25 -8 -107 -20 -183 -26 l-137 -12 -31 -96 c-37 -116
-36 -171 6 -226 31 -40 94 -74 140 -74 45 0 109 34 137 71 14 19 49 106 78
194 29 88 55 166 58 173 5 15 -10 14 -68 -4z"/>
</g>
</svg>
