<svg xmlns="http://www.w3.org/2000/svg" xmlns:xlink="http://www.w3.org/1999/xlink" id="Ebene_1" data-name="Ebene 1"
      viewBox="207.27 0 192.73 192.73">
      <defs>
            <style>
                  .cls-1 {
                        fill: none;
                  }
                  .cls-2 {
                        clip-path: url(#clip-path);
                  }
                  .cls-5 {
                        fill: #00a0e6;
                  }
            </style>
            <clipPath id="clip-path" transform="translate(0.2 0)">
                  <rect class="cls-1" x="-0.2" width="400" height="400"></rect>
            </clipPath>
      </defs>
      <g class="cls-2">
            <path class="cls-5"
                  d="M345.17,61.5l14.27,2.58A7.66,7.66,0,0,0,362.09,49l-10.95-1.94A10.7,10.7,0,0,1,349,57.58a50.75,50.75,0,0,1-3.82,3.92M302,42.07A16.51,16.51,0,0,1,303,38.53l-5.08-.9c-.29.64-.54,1.17-.73,1.53-1.36,2.66-16,4.89-17,8.62-.72,2.61,5.12,9.26,7.69,11.7,3.26,3.08,9,4.75,9.52,4.78,3.06.16,13.71-1.51,19.44-3.06l-2.36-.42h0A16,16,0,0,1,302,42.07m35.19,2.51-29.39-5.21a11.48,11.48,0,0,0-1.26,3.51,11.34,11.34,0,0,0,9,13.26l9,1.63c3.81-2.27,8.6-5.86,10.7-10.39a10.61,10.61,0,0,1,1.92-2.8m54.77-21.49-5,35.59s-4-13.88-21-16.55l-46.44-8.62a10.93,10.93,0,0,0-8.15,1.82l51.63,9.16a12.25,12.25,0,0,1-4.23,24.12h0l-18-3.19a98.36,98.36,0,0,1-8.34,6.3c-2.15,1.42-27.61,16.13-27.61,16.13s7.94,4.93,9.1,6.12,10.2,5.77,13.84,6.19c2.28.27,9.39-6.79,9.85-6.31s13.85-7.52,11,4c-2.49,10.11-7.83,9.61-12.44,13.69-4.81,4.26-17.22,2.29-19.94,3.06S300.52,111,300.52,111s-3.94,14.6-1.8,15.62,5.4,4.15,11.1,7.18c3.92,2.08,8.68,10,9.61,12.34,2.16,5.35-3.42,23.27,1.31,26.25a8.87,8.87,0,0,0,8.28.43c1.84-.74,7.06-4.18,9.94,1.43.76,1.49,1.77,8.06-5.14,9.52-8.13,1.72-14.67,4.93-19.59,5.58s-4.58-1.15-6.49-1.93-2.57-6.74-2.44-9.24-2.17-9.9-4.46-12.75-14-11.66-18.6-13.27-10.94,8.54-13.05,11.39-9.57,5.64-9.24,8.62,1.31,2.72,3.28,2.67c6.11-.13,7.31,2.25,8.09,4.07.85,2-4.15,9.12-11.33,6.46s-16.07-9.27-18.77-14.64c-2.12-4.22,3.89-27.57,3.51-29.64s-4.62-5-2.29-12.18,10.18-31.11,10.82-34-5-20.75-5.81-24.21,1.07-14.65.46-19.87a60.06,60.06,0,0,0-2.75-11c-.62-2.08.91-7.92.87-7.24s1.56-7.3.95-8.83a16.69,16.69,0,0,1-1-8c.35-2,3.14-2.07,5.18-2s4.21,2.59,8.22.75,14.79-1,17.69-.35,9.23,5.72,10.66,6.25,9,.24,9,.24a30.49,30.49,0,0,1,3.79,2.25c1.9,1.23.7,6.14-.81,10.34l5.91,1a15.61,15.61,0,0,1,14.49-5.51l47.54,4.89c17.1,2.13,24.27-10.61,24.27-10.61M399.8,0H207.07V192.73H399.8Z"
                  transform="translate(0.2 0)"></path>
            <path class="cls-5" d="M340.72,65.43c1.55-1.32,3.21-2.83,4.41-3.93l-20.64-3.73a75.41,75.41,0,0,1-7.71,3.42Z"
                  transform="translate(0.2 0)"></path>
      </g>
</svg>