<svg xmlns="http://www.w3.org/2000/svg" xmlns:xlink="http://www.w3.org/1999/xlink" id="Ebene_1" data-name="Ebene 1"
      viewBox="0 207.27 192.73 192.73">
      <defs>
            <style>
                  .cls-1 {
                        fill: none;
                  }

                  .cls-2 {
                        clip-path: url(#clip-path);
                  }

                  .cls-6 {
                        fill: #ff9500;
                  }
            </style>
            <clipPath id="clip-path" transform="translate(0.2 0)">
                  <rect class="cls-1" x="-0.2" width="400" height="400"></rect>
            </clipPath>
      </defs>
      <g class="cls-2">
            <path class="cls-6"
                  d="M83.59,313.81s6.16-24.24-9.28-37.63C58.45,262,53.57,257.76,48.76,253.61a14,14,0,0,1-1.27-4.33,19.09,19.09,0,0,1-.41-4.55c4.52,3.73,10.75,9.32,32.2,26,15.89,12.86,38.33,2.57,38.33,2.57Z"
                  transform="translate(0.2 0)"></path>
            <path class="cls-6"
                  d="M47.85,240.8c0,.68,1.55-7.29.95-8.83a16.57,16.57,0,0,1-1-8,1.91,1.91,0,0,1,.37-.83l-7.8-6.57a8.66,8.66,0,1,0-11.14,13.26L47,244.72a15.65,15.65,0,0,1,.87-3.92m67.47,49.93c-3.51,1.25-7.11,2.43-9.58,3.22l9,7.52a6.06,6.06,0,0,1,1,.71c1.16,1.2,9.66,4.57,13.3,5,1,.12,2.58-.52,4.27-1.41ZM115,271.1a36.83,36.83,0,0,0,8-4.07l-23.83-20-.14.29c-1,2-9.87,3.84-14.39,6.25l-.16.19-.07-.07a5.79,5.79,0,0,0-2.15,1.78l20.36,17.06c3.95,0,9.21-.19,12.35-1.46M137.2,279l4.57-3.69-14.11-11.89L123,267.06Zm41.94,35.11h0l-41.93-35.13a95,95,0,0,1-14.29,8.76l-1.45.66,17,14.27.88-.57c1.87-1.19,9.55-8.44,11.29,4.26a12.15,12.15,0,0,1-.5,6.09L168,327.32a8.66,8.66,0,0,0,11.15-13.26m3.94-4.19a14.41,14.41,0,0,1-18.54,22.05l0,0L146.43,316.8c-2.51,1.6-5.7,2.43-8.48,3.36-6.1,2-13,3.75-19.92,2.63-2.8-.45-15.69-3.55-15.69-3.55s-3.94,14.59-1.8,15.61,5.4,4.15,11.1,7.18c3.92,2.09,8.68,10,9.61,12.34,2.16,5.35-3.42,23.27,1.31,26.25a8.87,8.87,0,0,0,8.28.44c1.84-.75,7.06-4.19,9.94,1.43.76,1.48,1.77,8.06-5.14,9.52-8.13,1.71-14.67,4.92-19.59,5.57s-4.58-1.15-6.49-1.93-2.58-6.74-2.44-9.23-2.17-9.91-4.46-12.76-14-11.66-18.6-13.26-11,8.53-13,11.38-9.58,5.64-9.24,8.62,1.31,2.72,3.27,2.68c6.12-.14,7.32,2.25,8.09,4.06.86,2-4.14,9.12-11.32,6.47S45.74,384.34,43,379c-2.12-4.23,3.89-27.57,3.51-29.64s-4.62-5-2.29-12.19,10.18-31.11,10.82-34-5-20.75-5.81-24.2,1.07-14.66.46-19.88a40.2,40.2,0,0,0-1.06-5.35L25.23,234l0,0A14.4,14.4,0,0,1,43.78,212l0,0,13.54,11.42a6.41,6.41,0,0,0,3.81-.6c4-1.84,14.8-1,17.7-.35s9.23,5.72,10.66,6.25,9,.24,9,.24a29.43,29.43,0,0,1,3.79,2.25c1.91,1.23.7,6.16-.81,10.36l26.14,21.9a49.68,49.68,0,0,0,3.94-3.83c2.71-2.95,5.09-8.4,11.56-4.33,4.43,2.79,6.51,11.83,1.45,17.31a38.68,38.68,0,0,1-2.81,2.7l41.31,34.6ZM192.53,400V207.27H-.2V400Z"
                  transform="translate(0.2 0)"></path>
      </g>
</svg>