<svg xmlns="http://www.w3.org/2000/svg" id="Ebene_1" data-name="Ebene 1" viewBox="207.27 207.26 192.73 192.74">
      <defs>
            <clipPath id="clip-path" transform="translate(.2)">
                  <path fill="none" d="M-.2 0h400v400H-.2z"></path>
            </clipPath>
      </defs>
      <g clip-path="url(#clip-path)">
            <path fill="#00cd00"
                  d="M313.51 271.2a1.72 1.72 0 0 1-.07.21c.02-.07.05-.14.07-.21Zm-6.81.6a44.46 44.46 0 0 0 6.81-.6l3.77-12.75-22.54-6.64h-.1c-2.65 1.05-4.81 2.2-5.18 3.55-.73 2.6 5.11 9.26 7.69 11.69 3.25 3.09 9 4.75 9.51 4.78m23.79 13.85c.59-1.66 7.61-20.85 7.45-21.11-3.68 2.52-7.83 3.48-9 3.95-2.74 1.11-9.88 2.29-15.51 2.92l-1.74 5.88q-.54 1.84-1.11 3.75c-.27.93-.55 1.86-.83 2.8-1 3.41-2 6.87-3 10.22-.74 2.5-1.46 4.92-2.14 7.2-.35 1.2-.69 2.34-1 3.44-.21.7-.41 1.39-.6 2.05l-1.56 5.22c-.2.68-.38 1.31-.54 1.84l-.69 2.32a33.3 33.3 0 0 0 21.42 42 33.66 33.66 0 0 0 3.74 1h.22a34.91 34.91 0 0 0 3.62.49 15.12 15.12 0 0 0-.45-5.86c-.93-2.31-5.69-10.26-9.61-12.34-5.7-3-9-6.16-11.1-7.19-1.9-.9 1.8-15.61 1.8-15.61s4.06 1.35 8.12 2.41l-.27.75a18.3972 18.3972 0 0 0 35 11.35l10.93-33.59a11.43 11.43 0 0 0-1.15-9.53l-4.2 12.9c0 .71.56 1.05.44 4-.46 4.21-2.58 5.28-3.76 6.23l-6.43 19.74a13.0006 13.0006 0 0 1-24.74-8l.84-2.59c.05 0-4.06-.6-6.64-1.27l2.87-8.11c.36-1 .75-2.12 1.16-3.26.24-.69.49-1.39.75-2.12l1.08-3 .27-.77.42-1.18a8.07 8.07 0 0 1-1.34-.93c-1.16-1.2-9.11-6.12-9.11-6.12s8.66-5 16.31-9.46l-5.84 16.46a53.69 53.69 0 0 0 5.58 2.87l4.9-15a20.81 20.81 0 0 1 22.19-14.36c-.22-4.69-3.34-6.22-5.54-7.4a134.8 134.8 0 0 1-9.77 9.29 98.78 98.78 0 0 1-11.46 8c0-.1.07-.2.1-.29m-.19 41.33a5.172 5.172 0 0 0 9.84 3.19l3.19-9.82c.08 0 0-.06 0-.06-3.15 1.45-7.68 1.63-11.46 1.62Zm11.25-34.57-4.94 15.2c.11 0 .25.07.35.08 2.29.26 8.32-5.41 9.82-6.16a6.73 6.73 0 0 1 3.13-1.19l5.08-15.59a11.54 11.54 0 0 0-13.44 7.66m35.92-59.66s-19.31-1.31-33.15 19.33v.05a13.73 13.73 0 0 1 4.28-.57c7.63.41 8.56 9.53 8.56 9.52a17.18 17.18 0 0 1 8.47 17.95 20.75 20.75 0 0 1 8.88 24.09l-10.93 33.59a33.35 33.35 0 0 1-34.42 22.92c-.43 7.44-2.69 18.09.86 20.33a8.87 8.87 0 0 0 8.28.43c1.84-.74 7.05-4.18 9.93 1.43.76 1.48 1.78 8.06-5.14 9.52-8.13 1.72-14.66 4.28-19.58 4.93s-4.58-.5-6.49-1.28-2.58-6.74-2.45-9.24-2.17-9.9-4.46-12.75-14-11.67-18.59-13.27-10.95 8.53-13 11.38-9.58 5.65-9.25 8.63 1.32 2.72 3.28 2.67c6.11-.13 7.32 2.25 8.09 4.07.85 2-4.14 9.11-11.33 6.46s-16.07-9.27-18.76-14.64c-2.13-4.23 3.88-27.57 3.5-29.64s-4.62-5-2.29-12.19 10.18-31.11 10.83-34-5-20.75-5.82-24.21 1.08-14.65.46-19.87a60.83 60.83 0 0 0-2.74-11c-.63-2.09.9-7.92.87-7.24s1.55-7.3.95-8.83a16.61 16.61 0 0 1-1-8c.35-2 3.14-2.06 5.19-2s4.21 2.58 8.21.74 14.8-1 17.7-.35 9.22 5.72 10.66 6.25 9 .25 9 .25a27.63 27.63 0 0 1 3.79 2.25c3.07 2-1.93 13.55-3.29 16.21-.07.14 12.6 3.24 12.6 3.24C323.2 220.85 304.2 209 304.2 209l35.13 11.4 3.08 1ZM400 207.26H207.27V400H400Z">
            </path>
      </g>
</svg>