<svg width="855.9999999999999" height="1228" xmlns="http://www.w3.org/2000/svg">

 <g>
  <title>Layer 1</title>
  <path id="svg_1" fill="#34a853" d="m235.70001,910c37.9,47.4 76.5,107 96.7,143c24.6,46.8 34.8,78.4 53.1,135c10.7,31 20.9,40.4 42.3,40.4c23.4,0 34.1,-15.8 42.3,-40.4c17.1,-53.1 30.3,-93.5 51.2,-132c80.6,-152 212,-260 286,-408c0,0 48.7,-90.4 48.7,-217c0,-118 -48,-200 -48,-200l-572,680l-0.3,-1z"/>
  <path id="svg_2" fill="#fbbc04" d="m41.70001,632c46.1,105 134,197 194,278l318,-377s-44.9,58.8 -126,58.8c-90.4,0 -164,-72 -164,-163c0,-62.6 37.3,-106 37.3,-106c-234,34.8 -221,91.5 -260,309l0.7,0.2z"/>
  <path id="svg_3" fill="#4285f4" d="m557.70001,19.7c106,34.1 196,106 250,211l-254,303s37.3,-43.6 37.3,-106c0,-92.9 -78.4,-163 -163,-163c-80.3,0 -126,58.1 -126,58.1c19.5,-44.4 221,-288 256,-303l-0.3,-0.1z"/>
  <path id="svg_4" fill="#1a73e8" d="m99.70001,153c63.2,-75.2 174,-153 327,-153c73.9,0 130,19.6 130,19.6l-255,303c-17.2,-9.33 -185,-140 -202,-170l0,0.4z"/>
  <path id="svg_5" fill="#ea4335" d="m41.70001,632s-41.7,-82.8 -41.7,-202c0,-113 44.2,-212 100,-276l202,170l-260,308l-0.3,0z"/>
 </g>
</svg>