<svg id="Ebene_1" data-name="Ebene 1" xmlns="http://www.w3.org/2000/svg" xmlns:xlink="http://www.w3.org/1999/xlink"
      viewBox="0 0 400 400">
      <defs>
            <style>
                  .cls-1 {
                        fill: none;
                  }

                  .cls-2 {
                        clip-path: url(#clip-path);
                  }

                  .cls-3 {
                        fill: #e60087;
                  }

                  .cls-4 {
                        fill: #00cd00;
                  }

                  .cls-5 {
                        fill: #00a0e6;
                  }

                  .cls-6 {
                        fill: #ff9500;
                  }
            </style>
            <clipPath id="clip-path" transform="translate(0.2 0)">
                  <rect class="cls-1" x="-0.2" width="400" height="400" />
            </clipPath>
      </defs>
      <g class="cls-2">
            <rect fill="white" width="190" height="190" />
            <rect fill="white" width="190" height="190" x="210" />
            <rect fill="white" width="190" height="190" y="209" />
            <rect fill="white" width="190" height="190" x="210" y="209" />
            <path class="cls-3"
                  d="M167.55,74.54c0,.27-.05.55-.08.82,0-.27.06-.54.08-.82M112,40.9a37.94,37.94,0,0,1,3.81-2.09l-14.59-1.27c-.3.67-.57,1.24-.76,1.62-1.37,2.66-16,4.89-17,8.62-.73,2.61,5.11,9.26,7.68,11.7a18.88,18.88,0,0,0,4.92,3.14v0c.13-.49.29-1,.44-1.43S96.83,60,97,59.4A35.59,35.59,0,0,1,99.61,54c-.11.19-.24.36-.34.55.42-.78.87-1.55,1.35-2.29.17-.27.32-.54.49-.8s.24-.31.35-.46.32-.43.48-.64c.27-.37.53-.74.81-1.1s.71-.88,1.08-1.31c.21-.24.43-.46.64-.69l.3-.32c.23-.24.44-.49.67-.72.51-.51,1-1,1.57-1.48s1-.9,1.54-1.33c.69-.55,1.42-1.07,2.16-1.58.44-.3.86-.62,1.31-.9m42.8,10.52a30.57,30.57,0,0,0-5.24-4.78,26.72,26.72,0,0,1,5.24,4.78m.09.09,0,0a7.59,7.59,0,0,0-3.62-8.1c-3.29-2.17-8.61-.56-8.67-.55-.21-.09-.42-.19-.64-.27a31.23,31.23,0,0,0-40,18.63c.06-.16.13-.29.19-.45-.08.21-.16.4-.23.6-.33.92-.62,1.85-.86,2.78a21.52,21.52,0,0,1-4.84-1.62,36.23,36.23,0,0,0,8.88,34.56l-1.9-.53c-22-5.43-27.49-34.66-27.49-34.66L61.63,122.64s18.42-24.11,40.57-19.37l20,3.78a34.52,34.52,0,0,0,4.34.82l.91.18,0-.09a36.48,36.48,0,0,0,22.3-4.84,11.91,11.91,0,0,0,2.34-8.05,31.16,31.16,0,0,1-51-30.81H101c.09-.35.21-.7.31-1-.1.35-.16.7-.25,1.06,4.09,0,17.53-2.22,21.6-3.86,1.84-.75,12.4-5.64,15.82-13a10.42,10.42,0,0,1,4.18-4.53,29.1,29.1,0,0,1,6.68,3.61l.24.17a31,31,0,0,1,5.24,4.79l.05.06h0l0,0m0,0a11.42,11.42,0,0,1-2.66,6.06c-3.9,4.58-11.75,10.95-16.61,14.16C133.49,73.15,108,87.86,108,87.86s7.94,4.92,9.1,6.12,10.2,5.77,13.84,6.19c2.29.26,9.39-6.79,9.86-6.31s11-5.84,11.37.92h0a32.93,32.93,0,0,0,3.84-4.16l.07-.09c.54-.72,1.06-1.46,1.55-2.22.05-.1.11-.19.16-.28.44-.71.86-1.44,1.25-2.19l.27-.58c.33-.67.64-1.35.92-2.05.13-.32.23-.65.35-1,.21-.58.42-1.16.6-1.76-.2.67-.38,1.35-.62,2a31.14,31.14,0,0,0,1.25-4.63l-.24,1c-.12.51-.23,1-.37,1.51a26,26,0,0,0,.61-2.54,31.11,31.11,0,0,0-6.94-26.35m7.46,18c0,.38.06.76.08,1.15v-.06c0-.37-.05-.73-.07-1.09m5.18,5a.34.34,0,0,0,0-.1c0,.14,0,.29,0,.43s-.06.38-.09.57a.19.19,0,0,0,0-.08,35.33,35.33,0,0,1-2,8.91,36,36,0,0,1-15.73,18.84l.09,0c-2.78,4.86-6.83,5.29-10.43,8.48-4.81,4.26-17.21,2.29-19.94,3.06s-15.47-3.49-15.67-3.55h0c0,.14-3.93,14.59-1.79,15.61s5.4,4.15,11.1,7.18c3.92,2.08,8.67,10,9.61,12.34,2.16,5.35-3.42,23.27,1.3,26.25a8.88,8.88,0,0,0,8.28.43c1.84-.74,7.06-4.18,9.94,1.43.76,1.49,1.78,8.06-5.14,9.52-8.13,1.72-14.66,4.93-19.58,5.58s-4.58-1.15-6.49-1.93-2.58-6.74-2.45-9.24-2.17-9.9-4.46-12.75-14-11.66-18.59-13.27-11,8.54-13.06,11.39-9.57,5.64-9.24,8.62,1.31,2.72,3.28,2.67c6.11-.13,7.31,2.25,8.09,4.07.85,2-4.14,9.12-11.33,6.46s-16.07-9.27-18.77-14.64c-2.12-4.22,3.89-27.57,3.51-29.64s-4.62-5-2.29-12.18,10.18-31.12,10.82-34-5-20.75-5.81-24.21,1.08-14.65.46-19.87a61.06,61.06,0,0,0-2.74-11c-.63-2.08.9-7.92.86-7.24s1.56-7.3,1-8.83a16.59,16.59,0,0,1-1-8c.35-2,3.14-2.07,5.18-2s4.22,2.59,8.22.75,14.8-1,17.7-.35S89.52,19.92,91,20.45s9,.24,9,.24a27.63,27.63,0,0,1,3.79,2.25c1.8,1.16.82,5.6-.56,9.62l2.21.21,7.7.72,4.73.45,2.25.2,5.08.48,3.74.35,1.64.15,1.14.11.52.05,1.36.13.42,0h.11l.3,0h0a36.2,36.2,0,0,1,31.11,24.13c.06.18.11.36.17.54.26.79.52,1.59.73,2.41s.32,1.37.46,2.07c.06.3.13.61.18.92a36.41,36.41,0,0,1,.45,9M192.53,0H-.2V192.73H192.53Z"
                  transform="translate(0.2 0)" />
            <path class="cls-4"
                  d="M313.31,271.2a1.72,1.72,0,0,1-.07.21C313.26,271.34,313.29,271.27,313.31,271.2Zm-6.81.6a44.46,44.46,0,0,0,6.81-.6l3.77-12.75-22.54-6.64h0l-.1,0c-2.65,1.05-4.81,2.2-5.18,3.55-.73,2.6,5.11,9.26,7.69,11.69,3.25,3.09,9,4.75,9.51,4.78m23.79,13.85c.59-1.66,7.61-20.85,7.45-21.11-3.68,2.52-7.83,3.48-9,3.95-2.74,1.11-9.88,2.29-15.51,2.92l-1.74,5.88q-.54,1.84-1.11,3.75c-.27.93-.55,1.86-.83,2.8-1,3.41-2,6.87-3,10.22-.74,2.5-1.46,4.92-2.14,7.2-.35,1.2-.69,2.34-1,3.44-.21.7-.41,1.39-.6,2.05L301.21,312c-.2.68-.38,1.31-.54,1.84l-.69,2.32h0s0,0,0,0a33.3,33.3,0,0,0,21.42,42,33.66,33.66,0,0,0,3.74,1l.22,0a34.91,34.91,0,0,0,3.62.49,15.12,15.12,0,0,0-.45-5.86c-.93-2.31-5.69-10.26-9.61-12.34-5.7-3-9-6.16-11.1-7.19-1.9-.9,1.8-15.61,1.8-15.61s4.06,1.35,8.12,2.41l-.27.75h0a18.39,18.39,0,0,0,35,11.35l10.93-33.59a11.43,11.43,0,0,0-1.15-9.53l-4.2,12.9c0,.71.56,1.05.44,4-.46,4.21-2.58,5.28-3.76,6.23l-6.43,19.74a13,13,0,0,1-24.74-8h0l.84-2.59c.05,0-4.06-.6-6.64-1.27l2.87-8.11c.36-1,.75-2.12,1.16-3.26.24-.69.49-1.39.75-2.12l1.08-3,.27-.77.42-1.18a8.07,8.07,0,0,1-1.34-.93c-1.16-1.2-9.11-6.12-9.11-6.12s8.66-5,16.31-9.46l-5.84,16.46a53.69,53.69,0,0,0,5.58,2.87l4.9-15A20.81,20.81,0,0,1,357,276.07c-.22-4.69-3.34-6.22-5.54-7.4a134.8,134.8,0,0,1-9.77,9.29,98.78,98.78,0,0,1-11.46,8c0-.1.07-.2.1-.29M330.14,327h0a5.17,5.17,0,0,0,9.84,3.19h0l3.19-9.82c.08,0,0-.06,0-.06-3.15,1.45-7.68,1.63-11.46,1.62Zm11.25-34.57-4.94,15.2c.11,0,.25.07.35.08,2.29.26,8.32-5.41,9.82-6.16a6.73,6.73,0,0,1,3.13-1.19l5.08-15.59a11.54,11.54,0,0,0-13.44,7.66m35.92-59.66S358,231.46,344.16,252.1l0,.05a13.73,13.73,0,0,1,4.28-.57c7.63.41,8.56,9.53,8.56,9.52a17.18,17.18,0,0,1,8.47,17.95,20.75,20.75,0,0,1,8.88,24.09h0l-10.93,33.59h0l0,0A33.35,33.35,0,0,1,329,359.65c-.43,7.44-2.69,18.09.86,20.33a8.87,8.87,0,0,0,8.28.43c1.84-.74,7.05-4.18,9.93,1.43.76,1.48,1.78,8.06-5.14,9.52-8.13,1.72-14.66,4.28-19.58,4.93s-4.58-.5-6.49-1.28-2.58-6.74-2.45-9.24-2.17-9.9-4.46-12.75-14-11.67-18.59-13.27-10.95,8.53-13,11.38-9.58,5.65-9.25,8.63,1.32,2.72,3.28,2.67c6.11-.13,7.32,2.25,8.09,4.07.85,2-4.14,9.11-11.33,6.46s-16.07-9.27-18.76-14.64c-2.13-4.23,3.88-27.57,3.5-29.64s-4.62-5-2.29-12.19,10.18-31.11,10.83-34-5-20.75-5.82-24.21,1.08-14.65.46-19.87a60.83,60.83,0,0,0-2.74-11c-.63-2.09.9-7.92.87-7.24s1.55-7.3.95-8.83a16.61,16.61,0,0,1-1-8c.35-2,3.14-2.06,5.19-2s4.21,2.58,8.21.74,14.8-1,17.7-.35,9.22,5.72,10.66,6.25,9,.25,9,.25a27.63,27.63,0,0,1,3.79,2.25c3.07,2-1.93,13.55-3.29,16.21-.07.14,12.6,3.24,12.6,3.24C323,220.85,304,209,304,209l35.13,11.4,3.08,1Zm22.49-25.51H207.07V400H399.8Z"
                  transform="translate(0.2 0)" />
            <path class="cls-5"
                  d="M345.17,61.5l14.27,2.58A7.66,7.66,0,0,0,362.09,49l-10.95-1.94A10.7,10.7,0,0,1,349,57.58a50.75,50.75,0,0,1-3.82,3.92M302,42.07A16.51,16.51,0,0,1,303,38.53l-5.08-.9c-.29.64-.54,1.17-.73,1.53-1.36,2.66-16,4.89-17,8.62-.72,2.61,5.12,9.26,7.69,11.7,3.26,3.08,9,4.75,9.52,4.78,3.06.16,13.71-1.51,19.44-3.06l-2.36-.42h0A16,16,0,0,1,302,42.07m35.19,2.51-29.39-5.21a11.48,11.48,0,0,0-1.26,3.51,11.34,11.34,0,0,0,9,13.26l9,1.63c3.81-2.27,8.6-5.86,10.7-10.39a10.61,10.61,0,0,1,1.92-2.8m54.77-21.49-5,35.59s-4-13.88-21-16.55l-46.44-8.62a10.93,10.93,0,0,0-8.15,1.82l51.63,9.16a12.25,12.25,0,0,1-4.23,24.12h0l-18-3.19a98.36,98.36,0,0,1-8.34,6.3c-2.15,1.42-27.61,16.13-27.61,16.13s7.94,4.93,9.1,6.12,10.2,5.77,13.84,6.19c2.28.27,9.39-6.79,9.85-6.31s13.85-7.52,11,4c-2.49,10.11-7.83,9.61-12.44,13.69-4.81,4.26-17.22,2.29-19.94,3.06S300.52,111,300.52,111s-3.94,14.6-1.8,15.62,5.4,4.15,11.1,7.18c3.92,2.08,8.68,10,9.61,12.34,2.16,5.35-3.42,23.27,1.31,26.25a8.87,8.87,0,0,0,8.28.43c1.84-.74,7.06-4.18,9.94,1.43.76,1.49,1.77,8.06-5.14,9.52-8.13,1.72-14.67,4.93-19.59,5.58s-4.58-1.15-6.49-1.93-2.57-6.74-2.44-9.24-2.17-9.9-4.46-12.75-14-11.66-18.6-13.27-10.94,8.54-13.05,11.39-9.57,5.64-9.24,8.62,1.31,2.72,3.28,2.67c6.11-.13,7.31,2.25,8.09,4.07.85,2-4.15,9.12-11.33,6.46s-16.07-9.27-18.77-14.64c-2.12-4.22,3.89-27.57,3.51-29.64s-4.62-5-2.29-12.18,10.18-31.11,10.82-34-5-20.75-5.81-24.21,1.07-14.65.46-19.87a60.06,60.06,0,0,0-2.75-11c-.62-2.08.91-7.92.87-7.24s1.56-7.3.95-8.83a16.69,16.69,0,0,1-1-8c.35-2,3.14-2.07,5.18-2s4.21,2.59,8.22.75,14.79-1,17.69-.35,9.23,5.72,10.66,6.25,9,.24,9,.24a30.49,30.49,0,0,1,3.79,2.25c1.9,1.23.7,6.14-.81,10.34l5.91,1a15.61,15.61,0,0,1,14.49-5.51l47.54,4.89c17.1,2.13,24.27-10.61,24.27-10.61M399.8,0H207.07V192.73H399.8Z"
                  transform="translate(0.2 0)" />
            <path class="cls-5" d="M340.72,65.43c1.55-1.32,3.21-2.83,4.41-3.93l-20.64-3.73a75.41,75.41,0,0,1-7.71,3.42Z"
                  transform="translate(0.2 0)" />
            <path class="cls-6"
                  d="M83.59,313.81s6.16-24.24-9.28-37.63C58.45,262,53.57,257.76,48.76,253.61a14,14,0,0,1-1.27-4.33,19.09,19.09,0,0,1-.41-4.55c4.52,3.73,10.75,9.32,32.2,26,15.89,12.86,38.33,2.57,38.33,2.57Z"
                  transform="translate(0.2 0)" />
            <path class="cls-6"
                  d="M47.85,240.8c0,.68,1.55-7.29.95-8.83a16.57,16.57,0,0,1-1-8,1.91,1.91,0,0,1,.37-.83l-7.8-6.57a8.66,8.66,0,1,0-11.14,13.26L47,244.72a15.65,15.65,0,0,1,.87-3.92m67.47,49.93c-3.51,1.25-7.11,2.43-9.58,3.22l9,7.52a6.06,6.06,0,0,1,1,.71c1.16,1.2,9.66,4.57,13.3,5,1,.12,2.58-.52,4.27-1.41ZM115,271.1a36.83,36.83,0,0,0,8-4.07l-23.83-20-.14.29c-1,2-9.87,3.84-14.39,6.25l-.16.19-.07-.07a5.79,5.79,0,0,0-2.15,1.78l20.36,17.06c3.95,0,9.21-.19,12.35-1.46M137.2,279l4.57-3.69-14.11-11.89L123,267.06Zm41.94,35.11h0l-41.93-35.13a95,95,0,0,1-14.29,8.76l-1.45.66,17,14.27.88-.57c1.87-1.19,9.55-8.44,11.29,4.26a12.15,12.15,0,0,1-.5,6.09L168,327.32a8.66,8.66,0,0,0,11.15-13.26m3.94-4.19a14.41,14.41,0,0,1-18.54,22.05l0,0L146.43,316.8c-2.51,1.6-5.7,2.43-8.48,3.36-6.1,2-13,3.75-19.92,2.63-2.8-.45-15.69-3.55-15.69-3.55s-3.94,14.59-1.8,15.61,5.4,4.15,11.1,7.18c3.92,2.09,8.68,10,9.61,12.34,2.16,5.35-3.42,23.27,1.31,26.25a8.87,8.87,0,0,0,8.28.44c1.84-.75,7.06-4.19,9.94,1.43.76,1.48,1.77,8.06-5.14,9.52-8.13,1.71-14.67,4.92-19.59,5.57s-4.58-1.15-6.49-1.93-2.58-6.74-2.44-9.23-2.17-9.91-4.46-12.76-14-11.66-18.6-13.26-11,8.53-13,11.38-9.58,5.64-9.24,8.62,1.31,2.72,3.27,2.68c6.12-.14,7.32,2.25,8.09,4.06.86,2-4.14,9.12-11.32,6.47S45.74,384.34,43,379c-2.12-4.23,3.89-27.57,3.51-29.64s-4.62-5-2.29-12.19,10.18-31.11,10.82-34-5-20.75-5.81-24.2,1.07-14.66.46-19.88a40.2,40.2,0,0,0-1.06-5.35L25.23,234l0,0A14.4,14.4,0,0,1,43.78,212l0,0,13.54,11.42a6.41,6.41,0,0,0,3.81-.6c4-1.84,14.8-1,17.7-.35s9.23,5.72,10.66,6.25,9,.24,9,.24a29.43,29.43,0,0,1,3.79,2.25c1.91,1.23.7,6.16-.81,10.36l26.14,21.9a49.68,49.68,0,0,0,3.94-3.83c2.71-2.95,5.09-8.4,11.56-4.33,4.43,2.79,6.51,11.83,1.45,17.31a38.68,38.68,0,0,1-2.81,2.7l41.31,34.6ZM192.53,400V207.27H-.2V400Z"
                  transform="translate(0.2 0)" />
      </g>
</svg>