<?xml version="1.0" encoding="UTF-8"?>
<svg version="1.0" viewBox="22.5 65.33 3279.5 1168.3" xmlns="http://www.w3.org/2000/svg">
    <g transform="translate(0 1292) scale(.1 -.1)" fill="white">
        <path
            d="m4990 12261c-457-42-772-248-964-629-227-452-233-1264-12-1737 112-239 264-404 491-531 295-166 782-191 1148-58 181 65 380 219 500 387 93 130 174 316 216 499 48 203 55 282 55 553 0 261-6 324-45 518-92 459-357 794-732 926-171 60-450 90-657 72zm306-531c195-39 313-128 398-301 78-157 109-290 127-539 22-301-24-628-112-803-112-221-306-337-562-337-203 0-353 61-470 191-55 61-120 177-151 270-73 223-90 662-36 927 74 367 241 554 530 597 122 18 166 18 276-5z">
        </path>
        <path
            d="m29925 12256c-204-33-333-88-458-195-170-143-247-341-234-595 7-134 32-232 81-321 107-195 257-298 671-463 357-142 468-203 566-310 65-71 96-137 116-249 28-149-5-321-83-438-77-117-207-203-369-246-101-27-333-37-472-20-160 20-316 56-453 105-39 15-76 26-81 26-6 0-9-40-7-102l3-102 85-29c179-61 358-86 610-88 223-2 321 12 466 67 145 54 240 120 335 234 59 71 83 112 113 191 79 210 69 476-24 660-25 48-89 136-117 160-150 126-259 184-643 336-300 120-424 194-504 303-56 76-82 146-96 255-39 311 116 536 425 616 74 20 114 24 230 23 213-1 369-31 552-105 67-27 94-34 101-26 18 23 63 160 55 168-14 13-135 60-218 86-192 58-487 85-650 59z">
        </path>
        <path
            d="m31995 12256c-207-35-354-100-475-212-162-151-235-367-210-626 11-115 31-181 82-280 91-176 275-305 628-441 496-191 629-284 701-488 33-94 34-283 1-388-64-204-233-341-482-392-91-18-128-20-275-16-226 6-436 47-617 118-79 31-78 32-78-73 0-51 4-98 8-104 10-16 185-69 312-94 95-19 345-37 485-34 349 6 653 171 782 425 72 140 103 381 70 539-64 311-221 447-760 661-387 154-505 227-592 364-50 79-66 138-72 265-9 195 28 304 145 420 103 103 249 162 436 176 178 14 466-36 636-110 43-18 82-31 87-27 16 11 66 162 57 171-16 16-148 67-240 93-197 56-472 79-629 53z">
        </path>
        <path
            d="m10426 12232c-3-5-12-29-20-53-25-76-196-609-233-724-19-60-38-121-43-135s-50-153-100-310-118-366-150-465-74-229-93-290c-58-181-215-669-267-829-27-82-47-153-44-158 3-4 140-8 305-8h299l10 23c6 12 51 168 100 347 50 178 94 328 98 332 5 5 228 7 497 6l488-3 88-315c48-173 93-332 99-352l11-38h306 306l-7 33c-4 17-29 102-57 187-126 386-173 534-259 800-50 157-95 296-100 310s-50 153-100 310c-51 157-118 366-150 465s-104 322-160 495c-55 173-107 330-115 348l-15 32h-344c-190 0-347-4-350-8zm455-842c29-102 96-341 150-532 55-190 99-351 99-357 0-13-686-16-693-3-3 4 6 43 18 87 125 441 221 787 279 1015 44 170 45 170 72 65 13-49 47-173 75-275z">
        </path>
        <path
            d="m16666 12232c-6-11-15-37-111-337-73-227-200-623-315-980-29-88-73-227-100-310-51-159-105-327-190-590-28-88-89-277-135-420s-88-273-94-288c-6-16-9-33-5-38 3-5 134-9 304-9 275 0 300 1 308 18 5 9 48 159 96 332s91 325 96 338l10 22 492-2 492-3 87-315c48-173 93-332 99-352l11-38h303c166 0 305 3 309 6 3 3 2 16-3 27-5 12-31 92-59 177-83 260-229 715-292 908-143 441-252 777-369 1142-109 338-207 642-223 688l-11 32h-347c-191 0-350-4-353-8zm434-762c40-146 117-420 171-610 55-190 99-351 99-357 0-10-76-13-344-13-190 0-347 3-349 8-3 4 6 43 18 87 94 330 211 752 255 920 52 202 70 258 76 240 1-5 35-129 74-275z">
        </path>
        <path
            d="m27619 12228c-9-7-61-141-117-298s-117-330-137-385-47-129-59-165c-37-102-450-1253-610-1699-80-222-143-408-140-413 9-13 170-10 182 5 10 11 35 79 203 547 33 91 85 237 117 325l58 160h569 569l17-45c10-25 57-155 104-290 163-461 206-585 229-645l22-60 89-3c48-2 92 1 97 6 4 4-82 266-193 583-110 316-222 637-249 714-45 131-90 260-255 730-36 105-86 246-110 315s-73 211-110 315c-36 105-73 210-82 235-28 81-26 80-106 80-44 0-79-5-88-12zm116-355c20-65 48-152 61-193 14-41 108-322 210-623 101-302 184-550 184-553 0-2-225-4-500-4-320 0-500 4-500 10 0 5 30 94 66 197 112 321 264 754 299 853 31 88 58 172 115 358 13 39 24 72 26 72 1 0 19-53 39-117z">
        </path>
        <path
            d="m7052 12222c-10-6-12-310-10-1483l3-1474 274-3c195-2 278 1 287 9 12 10 14 105 14 568l-1 556h152 152l112-195c61-107 182-321 270-475 87-154 182-320 210-370l52-90 308-3c170-1 312 1 316 5 4 5-98 179-228 388-129 209-305 492-389 629-85 137-154 256-152 264s30 31 63 51c90 55 206 153 252 213 59 76 118 191 143 278 28 96 38 316 20 428-47 297-205 506-461 609-80 32-232 71-333 84s-1036 23-1054 11zm971-536c192-43 276-123 299-285 21-143-10-275-86-360-78-87-239-130-488-131h-128v401 402l168-6c93-3 197-12 235-21z">
        </path>
        <path
            d="m11995 12217c-6-13 2-38 138-477 82-263 179-574 202-650 13-41 43-140 68-220s76-242 112-360c109-352 159-513 230-740 37-118 77-249 90-290s33-106 46-145l24-70 306-3c238-2 308 1 316 10 5 7 21 51 36 98 14 47 71 231 127 410s119 384 141 455c22 72 44 141 49 155s27 84 49 155c22 72 83 270 136 440 53 171 114 369 136 440 22 72 44 141 49 155s27 86 50 160 45 146 50 160c19 54 89 286 92 305 3 20-3 20-278 23-218 2-283-1-291-10-5-7-55-170-111-363-56-192-167-575-247-850-161-551-196-681-255-959-21-104-41-190-43-192s-14 47-27 108c-43 216-101 444-196 773-53 181-120 413-149 515s-102 352-160 555c-59 204-110 379-113 390s-10 23-16 27-134 8-284 8c-211 0-274-3-277-13z">
        </path>
        <path d="m14790 10745v-1485h290 290v1485 1485h-290-290v-1485z" />
        <path
            d="m18922 12222c-10-7-12-310-10-1483l3-1474 253-3 252-2v757c0 543-4 860-16 1116-14 325-14 381 1 366 2-3 264-498 581-1100 316-602 582-1104 590-1117l15-22 359 2 360 3v1480 1480l-232 3c-128 1-243 0-255-3l-23-5v-758c0-636 7-1049 22-1376 2-34-1-61-7-63s-25 25-42 59c-18 35-56 108-86 163-29 55-134 251-232 435-97 184-199 376-226 425-26 50-167 314-312 589-146 274-272 507-281 517-15 18-36 19-358 19-189 0-349-4-356-8z">
        </path>
        <path
            d="m22045 12218c-3-7-4-674-3-1483l3-1470 400-3c623-5 777 15 1010 136 89 46 226 181 272 267 72 138 97 248 97 445 1 220-47 368-160 489-92 100-181 150-347 195-43 11-78 26-78 31 0 6 17 14 38 18 56 11 191 80 243 124 144 118 217 281 227 503 7 155-13 264-72 386-70 144-183 237-368 300-168 58-361 74-910 74-269 0-349-3-352-12zm985-193c185-25 289-67 375-149 104-101 145-211 145-391 0-266-107-435-331-519-121-45-241-56-633-56h-356v565 565h348c244 0 378-5 452-15zm-80-1305c174-12 301-44 414-103 96-51 157-115 202-212 43-95 57-169 57-305 0-298-116-485-364-586-125-52-163-56-611-61l-418-5v635c0 499 3 636 13 640 22 10 559 7 707-3z">
        </path>
        <path
            d="m24445 12218c-3-7-4-674-3-1483l3-1470 92-3 93-3 2 643 3 643 337 3 336 2 107-197c59-109 184-340 278-513s202-373 242-445l71-130 104-3c57-1 106 1 110 5s-70 148-164 318c-457 826-556 1006-559 1016-1 6 26 21 61 34 153 56 303 175 388 306 89 136 124 275 124 485 0 231-44 395-138 514-104 132-257 214-472 255-117 23-367 35-703 35-237 0-309-3-312-12zm860-188c117-14 191-34 293-81 139-64 219-165 259-326 25-103 22-324-6-426-65-237-207-372-460-438-65-17-122-21-403-26-257-5-331-3-343 7-13 11-15 90-15 650 0 350 3 640 7 643 10 11 569 8 668-3z">
        </path>
        <path
            d="m392 10743 3-1478 245-3c221-2 246-1 258 15 26 36 13 1482-19 2076-11 193-10 241 6 226 2-3 150-524 328-1159l324-1155 244-3c134-1 253 0 265 3 15 3 25 19 36 57 9 29 80 265 158 523 336 1114 454 1507 484 1607 45 153 59 161 52 28-19-341-27-833-24-1480l3-735h265 265l3 1478 2 1477h-393-393l-83-277c-46-153-105-350-132-438-79-269-269-898-310-1030-10-33-47-159-84-279-36-121-67-222-70-224-3-3-7-3-10 0-5 4-101 338-184 638-10 36-83 290-161 565s-150 532-161 570c-11 39-45 160-77 270l-57 200-393 3-392 2 2-1477z">
        </path>
        <path
            d="m5685 8300c-227-35-434-136-560-271-136-147-195-303-195-512 0-304 103-504 343-667 82-55 281-144 527-235 363-134 494-201 614-314 103-99 146-215 146-396 0-126-14-189-65-291-44-89-149-193-251-246-301-158-853-138-1340 49-12 4-14-13-14-105v-110l73-26c232-84 630-130 902-106 477 42 794 265 891 625 35 132 29 365-13 500-45 143-171 288-338 387-86 51-281 138-442 198-593 218-731 317-798 575-19 76-19 231 0 314 53 222 244 376 530 427 229 40 569 1 816-95 57-23 109-41 115-41s26 37 43 83c18 45 35 87 38 93 8 21-226 103-402 140-103 22-151 26-340 29-121 2-247 0-280-5z">
        </path>
        <path
            d="m14055 8263c-7-18-59-155-230-603-52-135-141-371-200-525-58-154-119-314-135-355s-59-154-95-250-79-209-95-250c-87-223-423-1112-434-1147-7-23-7-23 101-23h108l32 83c17 45 79 206 137 357 57 151 138 363 179 470l74 195h648 648l206-552 206-553h113c61 0 112 2 112 3 0 2-34 96-76 208-41 112-93 251-114 309-36 101-147 399-250 675-27 72-72 193-100 270-61 164-207 560-383 1035-36 96-103 279-150 405-47 127-89 238-92 248-6 15-21 17-105 17s-99-2-105-17zm149-380c24-76 99-291 166-478s155-434 197-550c41-115 88-246 104-290 15-44 31-95 35-113l7-32h-567c-425 0-566 3-566 12 0 6 22 70 49 142s79 210 114 306c36 96 121 326 190 510s146 401 172 483c26 81 48 147 50 147s24-62 49-137z">
        </path>
        <path
            d="m487 8263c-4-3-7-714-7-1580v-1573h110 110v705 705l688 2 687 3 3 97 3 98-688 2-688 3-3 672-2 673 727 2 728 3v95 95l-831 3c-457 1-834-1-837-5z">
        </path>
        <path
            d="m2687 8263c-4-3-7-714-7-1580v-1573h840 841l-3 95-3 96-715-1c-393 0-721 4-728 8-10 7-12 150-10 683l3 674 688 3 688 2-3 98-3 97-687 3-688 2v600 600h730 730v100 100h-833c-459 0-837-3-840-7z">
        </path>
        <path
            d="m7106 8248c-7-30-7-126 0-155l6-23h494 494v-1480-1480h110 110v1480 1480l498 2 497 3v95 95l-1101 3-1102 2-6-22z">
        </path>
        <path d="m9830 6690v-1580h105 105v1580 1580h-105-105v-1580z" />
        <path
            d="m10557 8263c-3-4 14-62 38-128 42-117 134-372 331-922 53-148 129-360 169-473 156-437 440-1229 520-1450l63-175 110-3 109-3 27 78c15 43 70 196 122 341 52 144 137 381 189 527 100 279 222 620 379 1058 52 144 158 440 236 657s148 412 156 433c25 68 26 67-96 67-80 0-112-4-115-12-8-26-149-420-241-676-52-144-137-381-189-527s-137-383-189-528c-212-587-279-780-337-975-23-75-44-141-48-145s-13 9-19 30c-7 21-26 83-42 138-38 123-112 338-235 680-91 254-142 397-340 950-111 310-265 740-334 930l-46 130-107 3c-58 1-109-1-111-5z">
        </path>
        <path d="m15937 8264c-4-4-7-715-7-1581v-1573h840 841l-3 98-3 97-1450 10-10 2950-101 3c-55 1-103 0-107-4z">
        </path>
        <path
            d="m18160 6690v-1580h663c526 0 682 3 757 15 391 59 673 257 792 556 46 115 61 224 55 399-6 177-19 238-76 355-70 142-216 258-391 309-78 22-88 31-53 44 169 62 228 101 299 194 58 78 99 166 126 272 17 70 19 104 15 246-6 246-45 356-172 485-79 80-127 111-247 160-258 105-458 125-1224 125h-544v-1580zm1160 1016c236-30 333-101 362-267 19-112-17-243-87-314-86-85-186-105-526-105h-259v343c0 189 3 347 7 350 12 12 395 7 503-7zm158-1255c86-25 169-75 205-123 64-83 89-215 63-336-41-198-156-297-373-322-49-5-195-10-325-10h-238v411 411l298-5c267-4 304-7 370-26z">
        </path>
        <path
            d="m21077 8263c-4-3-7-714-7-1580v-1573h885 885l-2 273-3 272-552 3-553 2v410 410h515 515l5 23c3 12 4 132 3 267l-3 245-1030 10-3 348-2 347h555 555l-2 273-3 272-876 3c-481 1-879-1-882-5z">
        </path>
        <path
            d="m23520 6690v-1580h325 325v605 605h168c148 0 171-2 184-17 9-10 109-173 223-363s273-454 354-587l145-243 354-2c195-2 356 0 358 4 5 8 12-4-510 792-202 307-366 566-364 574 2 9 39 37 83 63 191 114 302 226 380 384 67 135 86 221 87 395 0 160-10 236-49 354-112 344-398 528-908 585-61 7-306 11-627 11h-528v-1580zm1030 1015c244-32 357-101 406-248 22-64 23-253 2-307-54-138-139-213-283-250-84-22-326-43-430-38l-70 3-3 415c-1 228 0 421 3 427 6 18 239 17 375-2z">
        </path>
        <path
            d="m26437 8263c-4-3-7-714-7-1580v-1573h950 950l-2 273-3 272-617 3-618 2-2 1303-3 1302-321 3c-176 1-323-1-327-5z">
        </path>
        <path d="m28860 6690v-1580h330 330v1580 1580h-330-330v-1580z" />
        <path
            d="m30297 8263c-4-3-7-714-7-1580v-1573h293 292l-2 762c-1 678-11 1119-32 1491-6 120-3 149 16 125 6-7 56-94 111-193s131-236 170-305c38-69 166-298 284-510s302-540 408-730 229-411 274-492l81-148h418 417l-2 1578-3 1577h-290-290l-3-745c-2-410 2-860 7-1e3 23-564 24-613 13-609-6 2-115 189-242 414-127 226-253 448-279 495-27 47-131 231-231 410-442 785-573 1016-582 1028-8 9-103 12-413 12-221 0-405-3-408-7z">
        </path>
        <path
            d="m3935 4113c-151-8-328-49-430-100-436-221-642-805-622-1763 12-572 104-959 295-1250 53-79 183-215 255-264 167-114 406-168 655-147 147 13 254 40 360 91 108 51 153 84 240 169 86 86 141 164 197 285 146 310 205 657 205 1200 0 391-26 639-95 891-77 281-180 474-339 630-126 124-226 180-404 226-80 21-231 36-317 32zm191-619c125-59 210-216 254-472 35-198 44-338 44-677s-9-479-44-677c-59-339-185-498-395-498-205 0-331 151-390 467-34 187-40 289-40 708 0 422 6 518 41 714 51 276 161 433 323 461 68 12 149 2 207-26z">
        </path>
        <path
            d="m1180 4103c-279-27-512-121-740-297-94-72-215-178-215-188 0-4 80-111 179-237l179-229 76 63c160 132 324 227 451 262 78 21 274 24 337 5 61-18 134-72 171-126 49-74 66-143 65-271-2-139-26-233-92-363-102-197-262-386-1133-1335l-228-248v-255-254h1105 1105v305 305h-690c-634 0-690 1-690 16 0 10 141 159 313 333 354 358 564 587 674 736 213 287 303 538 303 846 0 137-10 209-42 309-95 296-336 514-656 595-114 29-333 42-472 28z">
        </path>
        <path
            d="m6440 4104c-313-37-516-123-775-329-49-40-111-92-137-116l-47-44 364-462 90 72c259 208 434 281 650 273 81-3 111-9 155-29 143-66 210-187 210-377 0-255-108-455-469-866-97-111-481-534-844-931l-147-160v-252-253h1110 1111l-3 302-3 303-687 3c-672 2-688 3-688 21 0 12 118 140 308 333 575 586 718 756 837 997 96 195 138 371 138 586 0 282-82 485-270 666-133 128-301 213-498 249-62 12-344 21-405 14z">
        </path>
        <path
            d="m8995 4095c-211-22-324-55-530-155-142-69-278-158-271-177 3-7 72-120 153-251l147-238 95 59c214 135 376 187 581 187 304-1 450-127 450-390 0-163-63-290-177-357-124-72-234-93-535-100l-238-6v-278-279h223c141 0 256-5 317-14 323-49 460-177 460-427 0-104-15-169-57-256-81-166-233-239-520-250-158-6-283 6-438 42-123 29-296 90-392 139-40 20-75 36-78 36s-4-138-3-307l3-307 77-33c42-18 134-49 204-68 474-130 1046-102 1379 67 344 174 525 480 525 889 0 248-57 404-200 548-122 124-300 206-532 247-21 3-38 10-38 14 0 5 24 16 53 25 313 102 524 310 598 593 30 114 37 313 14 416-33 149-89 257-180 349-231 233-613 332-1090 282z">
        </path>
    </g>
</svg>